<svg width="1076" height="721" viewBox="0 0 1076 721" fill="none" xmlns="http://www.w3.org/2000/svg">
<g clip-path="url(#clip0_9_155)">
<path opacity="0.2" d="M-109.193 0L1387.61 728.783" stroke="#B1C72E"/>
<path opacity="0.2" d="M-197.241 42.8691L1299.57 771.652" stroke="#B1C72E"/>
<path opacity="0.2" d="M-285.289 85.7393L1211.52 814.522" stroke="#B1C72E"/>
<path opacity="0.2" d="M-373.336 128.608L1123.47 857.391" stroke="#B1C72E"/>
<path opacity="0.2" d="M-461.383 171.479L1035.42 900.261" stroke="#B1C72E"/>
<path opacity="0.2" d="M-549.43 214.348L947.377 943.13" stroke="#B1C72E"/>
<path opacity="0.2" d="M-637.478 257.218L859.33 986.001" stroke="#B1C72E"/>
<path opacity="0.2" d="M-725.526 300.087L771.281 1028.87" stroke="#B1C72E"/>
<path opacity="0.2" d="M-813.574 342.957L683.234 1071.74" stroke="#B1C72E"/>
<path opacity="0.2" d="M-901.62 385.826L595.187 1114.61" stroke="#B1C72E"/>
<path opacity="0.2" d="M-989.668 428.695L507.139 1157.48" stroke="#B1C72E"/>
<path opacity="0.2" d="M-1077.71 471.565L419.093 1200.35" stroke="#B1C72E"/>
<path opacity="0.2" d="M-1165.76 514.435L331.045 1243.22" stroke="#B1C72E"/>
<path opacity="0.2" d="M-1253.81 557.305L242.996 1286.09" stroke="#B1C72E"/>
<path opacity="0.2" d="M-1341.86 600.174L154.949 1328.96" stroke="#B1C72E"/>
<path opacity="0.2" d="M-1429.91 643.044L66.9019 1371.83" stroke="#B1C72E"/>
<path opacity="0.2" d="M66.9022 85.7393L-1429.91 814.522" stroke="#B1C72E"/>
<path opacity="0.2" d="M154.949 128.608L-1341.86 857.391" stroke="#B1C72E"/>
<path opacity="0.2" d="M242.997 171.479L-1253.81 900.261" stroke="#B1C72E"/>
<path opacity="0.2" d="M331.045 214.348L-1165.76 943.13" stroke="#B1C72E"/>
<path opacity="0.2" d="M419.092 257.218L-1077.72 986.001" stroke="#B1C72E"/>
<path opacity="0.2" d="M507.139 300.087L-989.668 1028.87" stroke="#B1C72E"/>
<path opacity="0.2" d="M595.187 342.957L-901.621 1071.74" stroke="#B1C72E"/>
<path opacity="0.2" d="M683.217 385.826L-813.59 1114.61" stroke="#B1C72E"/>
<path opacity="0.2" d="M771.265 428.695L-725.543 1157.48" stroke="#B1C72E"/>
<path opacity="0.2" d="M859.312 471.565L-637.496 1200.35" stroke="#B1C72E"/>
<path opacity="0.2" d="M947.359 514.435L-549.448 1243.22" stroke="#B1C72E"/>
<path opacity="0.2" d="M1035.41 557.305L-461.401 1286.09" stroke="#B1C72E"/>
<path opacity="0.2" d="M1123.45 600.174L-373.353 1328.96" stroke="#B1C72E"/>
<path opacity="0.2" d="M1211.5 643.044L-285.306 1371.83" stroke="#B1C72E"/>
</g>
<defs>
<clipPath id="clip0_9_155">
<rect width="2682" height="721" fill="white" transform="translate(-1606)"/>
</clipPath>
</defs>
</svg>
