<?xml version="1.0" encoding="UTF-8" ?>
<!DOCTYPE svg PUBLIC "-//W3C//DTD SVG 1.1//EN" "http://www.w3.org/Graphics/SVG/1.1/DTD/svg11.dtd">
<svg width="1280pt" height="853pt" viewBox="0 0 1280 853" version="1.1" xmlns="http://www.w3.org/2000/svg">
<g id="#000000ff">
<path fill="#000000" opacity="1.00" d=" M 0.00 0.00 L 1280.00 0.00 L 1280.00 853.00 L 0.00 853.00 L 0.00 0.00 M 494.58 352.44 C 483.37 357.64 474.24 366.66 467.71 377.04 C 458.56 391.93 456.32 410.65 460.73 427.47 C 463.93 441.59 472.76 454.04 484.20 462.75 C 493.34 469.34 504.21 473.39 515.38 474.70 C 528.34 476.06 541.79 474.21 553.47 468.25 C 562.59 463.24 571.47 456.79 576.60 447.50 C 570.95 443.90 565.04 440.72 559.62 436.78 C 552.57 447.58 540.23 454.55 527.39 455.42 C 513.95 456.43 499.72 451.49 490.97 441.01 C 475.34 422.31 477.15 391.01 496.28 375.37 C 514.73 359.56 545.90 363.27 560.32 382.75 C 565.37 378.45 570.94 374.80 576.32 370.93 C 567.40 358.94 554.21 350.17 539.47 347.35 C 524.48 344.18 508.44 345.85 494.58 352.44 M 717.51 440.61 C 711.50 451.24 704.99 461.59 699.29 472.38 C 709.40 473.75 719.69 472.61 729.88 473.06 C 743.27 450.74 757.09 428.68 770.57 406.42 C 771.79 404.34 773.28 402.44 774.94 400.68 C 778.29 405.90 781.03 411.47 784.10 416.85 C 794.79 436.06 805.50 455.26 816.13 474.50 C 825.86 474.14 835.54 475.37 845.27 474.98 C 843.34 469.83 840.24 465.26 837.63 460.45 C 817.89 425.16 798.22 389.84 778.54 354.51 C 776.78 351.40 775.20 348.15 772.95 345.35 C 754.31 377.01 735.97 408.85 717.51 440.61 M 206.93 347.29 C 207.67 353.67 207.51 360.09 207.50 366.50 C 239.50 366.50 271.50 366.50 303.50 366.50 C 303.40 360.00 303.72 353.48 303.30 346.99 C 297.87 347.05 292.43 346.92 287.01 347.04 C 278.39 347.94 269.71 347.32 261.07 347.50 C 253.73 347.87 246.41 346.23 239.09 347.39 C 232.38 347.62 225.65 347.50 218.94 347.46 C 214.95 346.95 210.93 346.89 206.93 347.29 M 330.99 347.33 C 331.01 389.38 330.99 431.44 331.00 473.50 C 337.83 473.49 344.66 473.50 351.50 473.50 C 351.51 456.36 351.50 439.22 351.50 422.07 C 351.31 408.96 351.88 395.82 351.20 382.73 C 373.84 413.04 397.27 442.80 419.36 473.51 C 425.07 473.49 430.79 473.50 436.50 473.50 C 436.45 463.97 436.59 454.43 436.44 444.90 C 435.61 437.62 436.15 430.29 436.00 422.99 C 436.17 414.33 435.58 405.63 436.47 397.00 C 436.55 385.35 436.46 373.69 436.52 362.03 C 436.64 357.18 435.68 352.37 436.00 347.51 C 429.32 347.50 422.69 346.66 416.00 347.00 C 415.97 376.61 416.05 406.21 415.96 435.81 C 394.17 406.02 371.01 377.26 349.18 347.50 C 343.10 347.69 337.06 347.08 330.99 347.33 M 599.70 346.99 C 599.24 358.34 599.62 369.70 599.50 381.06 C 599.50 411.87 599.50 442.69 599.50 473.50 C 624.92 473.51 650.35 473.47 675.77 473.52 C 678.90 467.32 681.44 460.85 684.07 454.43 C 662.88 454.59 641.69 454.46 620.50 454.50 C 620.49 418.87 620.48 383.23 620.58 347.62 C 613.62 347.33 606.67 346.76 599.70 346.99 M 824.28 347.08 C 826.51 353.07 829.79 358.59 832.27 364.48 C 840.48 381.80 848.16 399.35 856.20 416.75 C 860.33 426.49 865.24 435.89 869.19 445.72 C 873.13 455.04 877.81 464.03 881.38 473.50 C 885.85 473.42 890.32 473.45 894.80 473.52 C 908.32 443.54 922.72 413.96 935.85 383.80 C 941.65 371.57 947.40 359.32 952.79 346.90 C 946.60 347.64 940.31 347.82 934.11 347.09 C 932.63 346.86 931.20 347.23 929.80 347.60 C 927.68 353.89 924.65 359.83 921.90 365.86 C 910.62 390.53 899.49 415.28 888.53 440.10 C 880.42 420.01 871.52 400.25 862.60 380.51 C 857.74 369.35 852.29 358.42 848.04 347.00 C 840.12 347.04 832.20 346.96 824.28 347.08 M 974.01 347.49 C 974.01 389.49 973.96 431.48 974.03 473.48 C 1007.02 473.38 1040.03 473.76 1073.01 473.30 C 1072.99 467.03 1073.00 460.77 1073.00 454.50 C 1047.00 454.50 1021.01 454.49 995.01 454.51 C 995.02 442.49 994.93 430.47 995.06 418.46 C 1017.87 418.56 1040.69 418.47 1063.50 418.50 C 1063.76 412.31 1062.62 406.17 1063.01 399.98 C 1054.39 398.93 1045.66 399.77 1036.99 399.50 C 1022.99 399.61 1008.97 399.14 995.00 400.03 C 995.00 388.85 994.99 377.67 995.01 366.50 C 1020.84 366.50 1046.67 366.50 1072.50 366.50 C 1072.50 360.18 1072.50 353.86 1072.50 347.54 C 1063.33 347.02 1054.15 346.88 1044.96 347.03 C 1037.02 347.71 1029.01 347.76 1021.08 347.06 C 1005.42 347.92 989.70 347.33 974.01 347.49 M 207.51 399.52 C 207.51 424.18 207.49 448.83 207.51 473.49 C 239.80 473.50 272.09 473.48 304.39 473.51 C 305.45 467.22 304.85 460.83 305.00 454.50 C 279.50 454.50 254.00 454.51 228.50 454.50 C 228.50 442.50 228.50 430.50 228.50 418.50 C 250.33 418.50 272.17 418.50 294.00 418.50 C 294.00 412.16 294.00 405.83 294.00 399.50 C 265.17 399.51 236.34 399.47 207.51 399.52 M 746.53 474.40 C 746.28 474.51 745.79 474.73 745.55 474.84 C 764.63 475.12 783.74 475.08 802.83 474.86 C 802.55 474.64 802.00 474.21 801.73 473.99 C 792.88 458.06 783.41 442.48 774.36 426.66 C 764.83 442.41 755.59 458.37 746.53 474.40 Z" />
</g>
<g id="#fefefeff">
<path fill="#fefefe" opacity="1.00" d=" M 494.58 352.44 C 508.44 345.85 524.48 344.18 539.47 347.35 C 554.21 350.17 567.40 358.94 576.32 370.93 C 570.94 374.80 565.37 378.45 560.32 382.75 C 545.90 363.27 514.73 359.56 496.28 375.37 C 477.15 391.01 475.34 422.31 490.97 441.01 C 499.72 451.49 513.95 456.43 527.39 455.42 C 540.23 454.55 552.57 447.58 559.62 436.78 C 565.04 440.72 570.95 443.90 576.60 447.50 C 571.47 456.79 562.59 463.24 553.47 468.25 C 541.79 474.21 528.34 476.06 515.38 474.70 C 504.21 473.39 493.34 469.34 484.20 462.75 C 472.76 454.04 463.93 441.59 460.73 427.47 C 456.32 410.65 458.56 391.93 467.71 377.04 C 474.24 366.66 483.37 357.64 494.58 352.44 Z" />
<path fill="#fefefe" opacity="1.00" d=" M 206.93 347.29 C 210.93 346.89 214.95 346.95 218.94 347.46 C 225.65 347.50 232.38 347.62 239.09 347.39 C 246.41 346.23 253.73 347.87 261.07 347.50 C 269.71 347.32 278.39 347.94 287.01 347.04 C 292.43 346.92 297.87 347.05 303.30 346.99 C 303.72 353.48 303.40 360.00 303.50 366.50 C 271.50 366.50 239.50 366.50 207.50 366.50 C 207.51 360.09 207.67 353.67 206.93 347.29 Z" />
<path fill="#fefefe" opacity="1.00" d=" M 330.99 347.33 C 337.06 347.08 343.10 347.69 349.18 347.50 C 371.01 377.26 394.17 406.02 415.96 435.81 C 416.05 406.21 415.97 376.61 416.00 347.00 C 422.69 346.66 429.32 347.50 436.00 347.51 C 435.68 352.37 436.64 357.18 436.52 362.03 C 436.46 373.69 436.55 385.35 436.47 397.00 C 435.58 405.63 436.17 414.33 436.00 422.99 C 436.15 430.29 435.61 437.62 436.44 444.90 C 436.59 454.43 436.45 463.97 436.50 473.50 C 430.79 473.50 425.07 473.49 419.36 473.51 C 397.27 442.80 373.84 413.04 351.20 382.73 C 351.88 395.82 351.31 408.96 351.50 422.07 C 351.50 439.22 351.51 456.36 351.50 473.50 C 344.66 473.50 337.83 473.49 331.00 473.50 C 330.99 431.44 331.01 389.38 330.99 347.33 Z" />
<path fill="#fefefe" opacity="1.00" d=" M 599.70 346.99 C 606.67 346.76 613.62 347.33 620.58 347.62 C 620.48 383.23 620.49 418.87 620.50 454.50 C 641.69 454.46 662.88 454.59 684.07 454.43 C 681.44 460.85 678.90 467.32 675.77 473.52 C 650.35 473.47 624.92 473.51 599.50 473.50 C 599.50 442.69 599.50 411.87 599.50 381.06 C 599.62 369.70 599.24 358.34 599.70 346.99 Z" />
<path fill="#fefefe" opacity="1.00" d=" M 824.28 347.08 C 832.20 346.96 840.12 347.04 848.04 347.00 C 852.29 358.42 857.74 369.35 862.60 380.51 C 871.52 400.25 880.42 420.01 888.53 440.10 C 899.49 415.28 910.62 390.53 921.90 365.86 C 924.65 359.83 927.68 353.89 929.80 347.60 C 931.20 347.23 932.63 346.86 934.11 347.09 C 940.31 347.82 946.60 347.64 952.79 346.90 C 947.40 359.32 941.65 371.57 935.85 383.80 C 922.72 413.96 908.32 443.54 894.80 473.52 C 890.32 473.45 885.85 473.42 881.38 473.50 C 877.81 464.03 873.13 455.04 869.19 445.72 C 865.24 435.89 860.33 426.49 856.20 416.75 C 848.16 399.35 840.48 381.80 832.27 364.48 C 829.79 358.59 826.51 353.07 824.28 347.08 Z" />
<path fill="#fefefe" opacity="1.00" d=" M 974.01 347.49 C 989.70 347.33 1005.42 347.92 1021.08 347.06 C 1029.01 347.76 1037.02 347.71 1044.96 347.03 C 1054.15 346.88 1063.33 347.02 1072.50 347.54 C 1072.50 353.86 1072.50 360.18 1072.50 366.50 C 1046.67 366.50 1020.84 366.50 995.01 366.50 C 994.99 377.67 995.00 388.85 995.00 400.03 C 1008.97 399.14 1022.99 399.61 1036.99 399.50 C 1045.66 399.77 1054.39 398.93 1063.01 399.98 C 1062.62 406.17 1063.76 412.31 1063.50 418.50 C 1040.69 418.47 1017.87 418.56 995.06 418.46 C 994.93 430.47 995.02 442.49 995.01 454.51 C 1021.01 454.49 1047.00 454.50 1073.00 454.50 C 1073.00 460.77 1072.99 467.03 1073.01 473.30 C 1040.03 473.76 1007.02 473.38 974.03 473.48 C 973.96 431.48 974.01 389.49 974.01 347.49 Z" />
<path fill="#fefefe" opacity="1.00" d=" M 207.51 399.52 C 236.34 399.47 265.17 399.51 294.00 399.50 C 294.00 405.83 294.00 412.16 294.00 418.50 C 272.17 418.50 250.33 418.50 228.50 418.50 C 228.50 430.50 228.50 442.50 228.50 454.50 C 254.00 454.51 279.50 454.50 305.00 454.50 C 304.85 460.83 305.45 467.22 304.39 473.51 C 272.09 473.48 239.80 473.50 207.51 473.49 C 207.49 448.83 207.51 424.18 207.51 399.52 Z" />
</g>
<g id="#eabc6cff">
<path fill="#eabc6c" opacity="1.00" d=" M 717.51 440.61 C 735.97 408.85 754.31 377.01 772.95 345.35 C 775.20 348.15 776.78 351.40 778.54 354.51 C 798.22 389.84 817.89 425.16 837.63 460.45 C 840.24 465.26 843.34 469.83 845.27 474.98 C 835.54 475.37 825.86 474.14 816.13 474.50 C 805.50 455.26 794.79 436.06 784.10 416.85 C 781.03 411.47 778.29 405.90 774.94 400.68 C 773.28 402.44 771.79 404.34 770.57 406.42 C 757.09 428.68 743.27 450.74 729.88 473.06 C 719.69 472.61 709.40 473.75 699.29 472.38 C 704.99 461.59 711.50 451.24 717.51 440.61 Z" />
<path fill="#eabc6c" opacity="1.00" d=" M 746.53 474.40 C 755.59 458.37 764.83 442.41 774.36 426.66 C 783.41 442.48 792.88 458.06 801.73 473.99 C 792.01 470.94 783.64 464.62 774.04 461.38 C 764.63 465.15 755.98 470.67 746.53 474.40 Z" />
</g>
<g id="#c39442ff">
<path fill="#c39442" opacity="1.00" d=" M 746.53 474.40 C 755.98 470.67 764.63 465.15 774.04 461.38 C 783.64 464.62 792.01 470.94 801.73 473.99 C 802.00 474.21 802.55 474.64 802.83 474.86 C 783.74 475.08 764.63 475.12 745.55 474.84 C 745.79 474.73 746.28 474.51 746.53 474.40 Z" />
</g>
</svg>
