<?xml version="1.0" encoding="UTF-8" ?>
<!DOCTYPE svg PUBLIC "-//W3C//DTD SVG 1.1//EN" "http://www.w3.org/Graphics/SVG/1.1/DTD/svg11.dtd">
<svg width="1280pt" height="853pt" viewBox="0 0 1280 853" version="1.1" xmlns="http://www.w3.org/2000/svg">
<g id="#ffffffff">
<path fill="#ffffff" opacity="1.00" d=" M 0.00 0.00 L 1280.00 0.00 L 1280.00 853.00 L 0.00 853.00 L 0.00 0.00 M 725.60 426.63 C 716.94 441.96 707.68 456.95 699.26 472.41 C 709.39 473.69 719.65 472.64 729.84 473.07 C 743.28 450.81 757.03 428.74 770.52 406.50 C 771.78 404.40 773.32 402.48 774.93 400.63 C 788.94 425.12 802.38 449.94 816.21 474.54 C 825.92 474.11 835.58 475.41 845.30 474.97 C 843.53 470.54 841.07 466.45 838.69 462.34 C 819.17 427.47 799.74 392.55 780.28 357.65 C 777.92 353.49 775.82 349.16 772.96 345.31 C 757.04 372.33 741.40 399.53 725.60 426.63 M 746.47 474.46 C 746.25 474.56 745.80 474.75 745.57 474.85 C 764.43 475.17 783.30 474.94 802.16 474.97 L 802.70 475.26 C 793.15 459.06 783.76 442.76 774.26 426.53 C 765.00 442.51 755.50 458.36 746.47 474.46 M 383.79 516.22 C 386.80 523.17 389.47 530.27 392.54 537.20 C 393.21 537.48 394.55 538.05 395.22 538.33 C 399.43 531.39 401.71 523.49 404.66 515.97 C 403.50 515.96 402.34 515.93 401.19 515.91 C 398.84 521.44 396.88 527.16 394.05 532.48 C 391.61 526.94 389.56 521.23 387.76 515.45 C 386.44 515.70 385.10 515.95 383.79 516.22 M 315.00 516.02 C 315.01 523.19 314.97 530.36 315.03 537.54 C 316.18 537.51 317.34 537.49 318.49 537.48 C 318.50 535.16 318.50 532.84 318.52 530.53 C 321.86 530.40 325.42 530.97 328.59 529.64 C 333.33 527.01 333.26 519.07 328.18 516.85 C 323.98 515.33 319.37 516.18 315.00 516.02 M 342.50 516.01 C 342.48 523.18 342.50 530.36 342.49 537.54 C 343.36 537.53 345.12 537.50 346.00 537.49 C 345.99 535.16 346.00 532.83 346.01 530.51 C 347.73 530.50 349.46 530.50 351.19 530.50 C 352.66 532.81 354.12 535.14 355.51 537.50 C 357.01 537.65 358.52 537.76 360.04 537.82 C 358.40 535.36 356.66 532.97 354.97 530.55 C 358.58 528.23 361.27 523.35 358.46 519.39 C 354.76 514.54 347.76 516.35 342.50 516.01 M 370.52 516.00 C 370.47 523.16 370.50 530.32 370.50 537.48 C 371.42 537.49 373.27 537.53 374.19 537.55 C 374.22 530.37 374.76 523.20 374.47 516.01 C 373.48 516.01 371.51 516.00 370.52 516.00 M 417.52 520.46 C 415.28 526.41 412.37 532.07 409.72 537.85 C 411.02 537.73 412.33 537.62 413.65 537.52 C 414.26 536.07 414.88 534.63 415.50 533.19 C 418.96 532.33 422.52 532.56 426.01 533.10 C 426.60 534.53 427.19 535.95 427.79 537.39 C 429.13 537.63 430.46 537.88 431.80 538.15 C 429.32 532.03 426.56 526.03 424.12 519.90 C 423.29 518.12 422.66 515.17 420.01 515.98 C 418.69 517.14 418.19 518.89 417.52 520.46 M 436.76 516.00 C 436.80 516.78 436.88 518.34 436.92 519.11 C 439.43 519.46 441.95 519.56 444.49 519.58 C 444.50 525.74 444.49 531.89 444.50 538.06 C 445.63 537.97 446.77 537.89 447.91 537.82 C 448.08 531.72 447.96 525.62 448.01 519.52 C 450.24 519.52 452.48 519.65 454.71 519.39 C 455.95 518.69 455.30 517.13 455.45 516.00 C 449.22 515.99 442.99 515.99 436.76 516.00 M 464.50 516.01 C 464.49 523.17 464.49 530.33 464.50 537.50 C 470.00 537.51 475.50 537.51 481.00 537.49 C 481.00 536.87 481.00 535.63 481.00 535.01 C 476.67 535.00 472.33 534.99 468.00 535.00 C 468.00 532.83 468.00 530.66 468.00 528.51 C 471.64 528.49 475.28 528.50 478.93 528.53 C 478.95 527.51 478.99 526.50 479.03 525.49 C 475.34 525.60 471.65 525.53 467.99 525.08 C 467.98 523.18 467.99 521.29 468.00 519.41 C 472.33 519.16 476.66 518.92 481.00 518.97 C 481.00 518.23 481.00 516.75 481.00 516.01 C 475.50 515.99 470.00 515.99 464.50 516.01 M 508.00 516.01 C 508.02 523.34 507.92 530.68 508.07 538.02 C 511.99 537.63 515.93 537.56 519.87 537.45 C 523.00 537.40 526.37 535.17 526.55 531.82 C 526.91 529.28 524.35 527.87 522.78 526.40 C 523.55 525.57 524.31 524.75 525.10 523.95 C 525.31 521.23 524.79 518.16 521.97 516.98 C 517.48 515.49 512.65 516.10 508.00 516.01 M 543.33 516.11 C 540.38 523.35 537.07 530.44 534.15 537.69 C 535.34 537.64 536.53 537.54 537.72 537.38 C 538.61 536.03 538.80 534.17 540.09 533.15 C 543.38 532.78 546.71 533.03 550.03 533.02 C 550.56 534.49 551.09 535.95 551.63 537.43 C 552.91 537.54 554.21 537.66 555.50 537.78 C 552.91 530.29 549.34 523.20 546.25 515.92 C 545.52 515.97 544.06 516.06 543.33 516.11 M 565.01 516.01 C 565.02 523.29 564.91 530.57 565.08 537.86 C 565.93 537.91 567.61 538.00 568.46 538.05 C 568.53 532.81 568.53 527.56 568.45 522.32 C 571.84 526.71 575.08 531.21 578.47 535.61 C 579.48 537.17 581.25 537.82 582.95 538.36 C 583.05 530.91 582.98 523.45 582.99 516.00 C 582.16 516.00 580.51 516.00 579.68 516.00 C 579.37 520.95 579.55 525.91 579.43 530.87 C 575.49 525.97 571.81 520.88 567.91 515.97 C 567.18 515.98 565.73 516.00 565.01 516.01 M 595.01 515.99 C 594.94 523.16 595.27 530.36 594.41 537.50 C 595.76 537.48 597.12 537.48 598.50 537.49 C 597.27 533.78 598.73 530.14 601.79 527.86 C 604.40 531.09 606.83 534.48 609.62 537.57 C 611.03 537.49 612.44 537.43 613.86 537.39 C 610.60 533.58 607.63 529.54 604.27 525.83 C 607.61 522.79 610.54 519.33 613.44 515.88 C 611.68 516.16 609.53 515.70 608.18 517.14 C 604.89 520.14 601.98 523.55 598.60 526.46 C 598.49 522.98 598.48 519.50 598.51 516.02 C 597.33 516.00 596.17 515.99 595.01 515.99 M 645.35 516.43 C 639.21 518.45 635.43 526.44 638.86 532.20 C 641.86 537.70 649.22 539.81 654.69 536.74 C 660.83 534.15 662.18 525.58 658.73 520.37 C 655.81 516.20 650.02 515.06 645.35 516.43 M 671.11 515.91 C 670.92 523.13 670.97 530.36 671.07 537.59 C 672.21 537.53 673.35 537.49 674.50 537.45 C 674.50 532.37 674.50 527.30 674.51 522.22 C 676.68 525.13 678.91 528.00 681.19 530.83 C 683.46 533.61 685.34 536.97 688.82 538.42 C 689.79 530.98 689.47 523.47 689.50 516.00 C 688.63 516.00 686.88 516.00 686.00 516.00 C 685.99 520.93 686.02 525.86 685.97 530.79 C 682.32 526.47 678.73 522.09 675.47 517.46 C 674.68 515.71 672.63 516.15 671.11 515.91 M 718.00 516.01 C 717.99 523.22 718.00 530.43 717.99 537.64 C 722.19 537.37 726.41 537.70 730.61 537.40 C 733.53 536.94 736.70 534.16 735.91 530.94 C 735.76 528.95 733.91 527.86 732.67 526.56 C 735.63 524.05 735.76 517.68 731.34 516.75 C 726.99 515.60 722.44 516.05 718.00 516.01 M 746.67 516.00 C 746.31 523.15 746.56 530.33 746.51 537.49 C 751.34 537.51 756.18 537.51 761.03 537.49 C 761.01 536.74 760.96 535.23 760.94 534.47 C 757.29 534.50 753.65 534.50 750.01 534.49 C 749.99 528.32 750.01 522.16 749.99 516.00 C 749.16 516.00 747.50 516.00 746.67 516.00 M 775.42 516.54 C 772.25 517.75 769.78 520.48 768.71 523.68 C 766.99 527.88 769.27 532.64 772.42 535.50 C 776.03 538.57 781.53 538.79 785.67 536.67 C 791.28 533.42 792.75 525.17 788.92 520.01 C 786.09 515.61 780.00 515.21 775.42 516.54 M 806.05 517.17 C 799.45 520.61 798.38 531.13 804.38 535.67 C 809.27 539.74 816.78 538.44 821.09 534.12 C 820.14 533.15 819.20 532.20 818.27 531.24 C 815.90 534.13 811.79 535.93 808.28 533.94 C 802.20 531.28 803.19 520.74 809.72 519.42 C 812.84 518.43 815.76 520.31 818.20 522.05 C 819.00 521.22 819.82 520.40 820.65 519.59 C 816.86 515.84 810.83 514.70 806.05 517.17 M 831.01 515.99 C 831.02 523.19 830.91 530.39 831.08 537.60 C 832.21 537.54 833.35 537.50 834.49 537.46 C 834.49 535.71 834.49 533.96 834.51 532.22 C 835.76 530.95 837.03 529.69 838.30 528.43 C 840.65 531.57 843.09 534.63 845.53 537.71 C 847.04 537.76 848.55 537.82 850.09 537.88 C 846.98 533.93 843.88 529.98 840.71 526.08 C 843.52 522.77 846.63 519.70 849.04 516.06 C 847.39 516.21 845.37 515.69 844.17 517.14 C 840.79 520.31 837.61 523.69 834.39 527.02 C 834.51 523.35 834.53 519.69 834.51 516.02 C 833.33 516.00 832.17 515.99 831.01 515.99 M 860.42 519.30 C 855.82 523.83 856.53 532.42 861.90 536.08 C 866.76 539.58 873.80 538.29 877.99 534.28 C 876.99 533.37 875.98 532.47 875.00 531.58 C 872.39 534.00 868.63 535.73 865.18 534.00 C 859.32 531.43 859.80 521.62 865.85 519.63 C 869.27 518.10 872.68 520.25 875.27 522.36 C 875.84 521.32 876.97 520.49 877.02 519.23 C 872.76 514.70 864.64 514.72 860.42 519.30 M 887.72 516.04 C 886.89 523.20 888.44 530.33 887.98 537.50 C 888.86 537.50 890.61 537.50 891.49 537.50 C 891.49 534.50 891.50 531.50 891.52 528.51 C 895.17 528.50 898.82 528.50 902.49 528.50 C 902.49 531.48 902.49 534.46 902.48 537.45 C 903.62 537.57 904.77 537.71 905.93 537.85 C 906.06 530.57 906.01 523.28 905.97 516.01 C 904.82 516.00 903.69 516.00 902.57 516.01 C 902.51 519.18 902.26 522.34 901.92 525.50 C 898.43 525.62 894.93 525.52 891.48 525.03 C 891.51 521.91 891.51 518.81 891.43 515.70 C 890.50 515.79 888.65 515.96 887.72 516.04 M 924.95 515.98 C 921.68 523.11 918.60 530.33 915.36 537.47 C 916.67 537.47 918.00 537.49 919.33 537.52 C 919.94 535.89 920.57 534.27 921.21 532.66 C 924.59 532.49 927.97 532.45 931.36 532.50 C 931.95 534.17 932.55 535.85 933.16 537.53 C 934.47 537.51 935.78 537.50 937.11 537.50 C 934.01 530.32 931.33 522.96 927.77 515.99 C 927.07 515.99 925.65 515.98 924.95 515.98 M 947.00 516.00 C 946.99 523.13 947.00 530.25 947.00 537.38 C 947.83 537.55 949.48 537.90 950.31 538.07 C 950.70 530.72 950.43 523.35 950.50 516.00 C 949.62 516.00 947.88 516.00 947.00 516.00 M 962.55 515.93 C 962.51 523.39 962.34 530.86 962.66 538.32 C 963.83 537.90 966.29 538.01 965.96 536.07 C 966.13 531.59 965.89 527.12 966.07 522.65 C 970.16 527.44 973.94 532.49 977.94 537.37 C 978.95 537.50 979.97 537.64 981.00 537.79 C 980.99 530.41 981.01 523.03 980.98 515.66 C 980.11 515.76 978.37 515.96 977.49 516.07 C 977.49 520.96 977.47 525.85 977.54 530.75 C 973.63 525.90 969.51 521.22 966.05 516.03 C 965.17 516.01 963.42 515.96 962.55 515.93 Z" />
<path fill="#ffffff" opacity="1.00" d=" M 648.28 519.12 C 653.07 518.49 657.60 523.16 656.51 527.98 C 656.38 534.67 645.88 537.08 642.67 531.34 C 639.77 526.71 642.79 519.81 648.28 519.12 Z" />
<path fill="#ffffff" opacity="1.00" d=" M 778.23 519.16 C 781.06 518.60 784.03 520.12 785.95 522.16 C 789.33 526.83 786.09 534.77 779.96 534.61 C 775.24 535.29 771.26 530.65 772.09 526.11 C 772.32 522.71 774.87 519.77 778.23 519.16 Z" />
<path fill="#ffffff" opacity="1.00" d=" M 318.51 519.50 C 320.95 519.50 323.41 519.33 325.83 519.68 C 328.68 520.52 328.63 524.85 326.97 526.78 C 324.25 527.71 321.33 527.46 318.51 527.54 C 318.51 524.85 318.51 522.18 318.51 519.50 Z" />
<path fill="#ffffff" opacity="1.00" d=" M 345.77 519.51 C 348.19 519.49 350.63 519.35 353.05 519.66 C 354.96 519.87 355.48 521.91 356.18 523.37 C 355.88 524.03 355.30 525.35 355.01 526.01 C 352.10 526.88 349.07 527.10 346.06 527.08 C 345.94 524.55 345.86 522.03 345.77 519.51 Z" />
<path fill="#ffffff" opacity="1.00" d=" M 511.51 519.51 C 514.84 519.39 518.18 519.51 521.50 519.89 C 521.58 521.74 521.00 523.48 520.07 525.07 C 517.22 524.98 514.36 524.97 511.51 524.98 C 511.50 523.15 511.50 521.32 511.51 519.51 Z" />
<path fill="#ffffff" opacity="1.00" d=" M 721.53 519.50 C 724.82 519.48 728.38 518.99 731.26 520.99 C 730.87 522.35 730.49 523.72 730.13 525.11 C 727.24 525.57 724.32 525.36 721.46 524.88 C 721.48 523.08 721.50 521.29 721.53 519.50 Z" />
<path fill="#ffffff" opacity="1.00" d=" M 926.55 520.23 C 927.75 523.26 928.85 526.33 929.90 529.43 C 927.37 529.52 924.86 529.66 922.35 529.91 C 923.71 526.67 925.04 523.41 926.55 520.23 Z" />
<path fill="#ffffff" opacity="1.00" d=" M 417.53 529.50 C 418.69 526.66 419.86 523.82 421.03 520.99 C 422.07 523.81 423.11 526.64 424.06 529.50 C 421.88 529.49 419.70 529.49 417.53 529.50 Z" />
<path fill="#ffffff" opacity="1.00" d=" M 545.14 520.75 C 546.18 523.66 547.30 526.54 548.41 529.43 C 545.96 529.72 543.50 529.93 541.05 530.12 C 542.45 527.01 543.82 523.89 545.14 520.75 Z" />
<path fill="#ffffff" opacity="1.00" d=" M 721.62 528.09 C 725.20 527.86 728.98 527.80 732.07 529.93 C 732.07 530.80 732.06 532.52 732.05 533.39 C 728.72 534.92 725.02 534.51 721.47 534.48 C 721.51 532.34 721.56 530.21 721.62 528.09 Z" />
<path fill="#ffffff" opacity="1.00" d=" M 511.51 528.52 C 515.44 528.76 520.30 527.28 523.17 530.83 C 521.15 535.47 515.64 534.60 511.52 535.11 C 511.51 532.91 511.51 530.71 511.51 528.52 Z" />
</g>
<g id="#eabc6cff">
<path fill="#eabc6c" opacity="1.00" d=" M 725.60 426.63 C 741.40 399.53 757.04 372.33 772.96 345.31 C 775.82 349.16 777.92 353.49 780.28 357.65 C 799.74 392.55 819.17 427.47 838.69 462.34 C 841.07 466.45 843.53 470.54 845.30 474.97 C 835.58 475.41 825.92 474.11 816.21 474.54 C 802.38 449.94 788.94 425.12 774.93 400.63 C 773.32 402.48 771.78 404.40 770.52 406.50 C 757.03 428.74 743.28 450.81 729.84 473.07 C 719.65 472.64 709.39 473.69 699.26 472.41 C 707.68 456.95 716.94 441.96 725.60 426.63 Z" />
<path fill="#eabc6c" opacity="1.00" d=" M 746.47 474.46 C 755.50 458.36 765.00 442.51 774.26 426.53 C 783.76 442.76 793.15 459.06 802.70 475.26 L 802.16 474.97 C 792.90 470.17 783.56 465.51 774.12 461.06 C 764.88 465.48 755.90 470.45 746.47 474.46 Z" />
<path fill="#eabc6c" opacity="1.00" d=" M 383.79 516.22 C 385.10 515.95 386.44 515.70 387.76 515.45 C 389.56 521.23 391.61 526.94 394.05 532.48 C 396.88 527.16 398.84 521.44 401.19 515.91 C 402.34 515.93 403.50 515.96 404.66 515.97 C 401.71 523.49 399.43 531.39 395.22 538.33 C 394.55 538.05 393.21 537.48 392.54 537.20 C 389.47 530.27 386.80 523.17 383.79 516.22 Z" />
<path fill="#eabc6c" opacity="1.00" d=" M 315.00 516.02 C 319.37 516.18 323.98 515.33 328.18 516.85 C 333.26 519.07 333.33 527.01 328.59 529.64 C 325.42 530.97 321.86 530.40 318.52 530.53 C 318.50 532.84 318.50 535.16 318.49 537.48 C 317.34 537.49 316.18 537.51 315.03 537.54 C 314.97 530.36 315.01 523.19 315.00 516.02 M 318.51 519.50 C 318.51 522.18 318.51 524.85 318.51 527.54 C 321.33 527.46 324.25 527.71 326.97 526.78 C 328.63 524.85 328.68 520.52 325.83 519.68 C 323.41 519.33 320.95 519.50 318.51 519.50 Z" />
<path fill="#eabc6c" opacity="1.00" d=" M 342.50 516.01 C 347.76 516.35 354.76 514.54 358.46 519.39 C 361.27 523.35 358.58 528.23 354.97 530.55 C 356.66 532.97 358.40 535.36 360.04 537.82 C 358.52 537.76 357.01 537.65 355.51 537.50 C 354.12 535.14 352.66 532.81 351.19 530.50 C 349.46 530.50 347.73 530.50 346.01 530.51 C 346.00 532.83 345.99 535.16 346.00 537.49 C 345.12 537.50 343.36 537.53 342.49 537.54 C 342.50 530.36 342.48 523.18 342.50 516.01 M 345.77 519.51 C 345.86 522.03 345.94 524.55 346.06 527.08 C 349.07 527.10 352.10 526.88 355.01 526.01 C 355.30 525.35 355.88 524.03 356.18 523.37 C 355.48 521.91 354.96 519.87 353.05 519.66 C 350.63 519.35 348.19 519.49 345.77 519.51 Z" />
<path fill="#eabc6c" opacity="1.00" d=" M 370.52 516.00 C 371.51 516.00 373.48 516.01 374.47 516.01 C 374.76 523.20 374.22 530.37 374.19 537.55 C 373.27 537.53 371.42 537.49 370.50 537.48 C 370.50 530.32 370.47 523.16 370.52 516.00 Z" />
<path fill="#eabc6c" opacity="1.00" d=" M 417.52 520.46 C 418.19 518.89 418.69 517.14 420.01 515.98 C 422.66 515.17 423.29 518.12 424.12 519.90 C 426.56 526.03 429.32 532.03 431.80 538.15 C 430.46 537.88 429.13 537.63 427.79 537.39 C 427.19 535.95 426.60 534.53 426.01 533.10 C 422.52 532.56 418.96 532.33 415.50 533.19 C 414.88 534.63 414.26 536.07 413.65 537.52 C 412.33 537.62 411.02 537.73 409.72 537.85 C 412.37 532.07 415.28 526.41 417.52 520.46 M 417.53 529.50 C 419.70 529.49 421.88 529.49 424.06 529.50 C 423.11 526.64 422.07 523.81 421.03 520.99 C 419.86 523.82 418.69 526.66 417.53 529.50 Z" />
<path fill="#eabc6c" opacity="1.00" d=" M 436.76 516.00 C 442.99 515.99 449.22 515.99 455.45 516.00 C 455.30 517.13 455.95 518.69 454.71 519.39 C 452.48 519.65 450.24 519.52 448.01 519.52 C 447.96 525.62 448.08 531.72 447.91 537.82 C 446.77 537.89 445.63 537.97 444.50 538.06 C 444.49 531.89 444.50 525.74 444.49 519.58 C 441.95 519.56 439.43 519.46 436.92 519.11 C 436.88 518.34 436.80 516.78 436.76 516.00 Z" />
<path fill="#eabc6c" opacity="1.00" d=" M 464.50 516.01 C 470.00 515.99 475.50 515.99 481.00 516.01 C 481.00 516.75 481.00 518.23 481.00 518.97 C 476.66 518.92 472.33 519.16 468.00 519.41 C 467.99 521.29 467.98 523.18 467.99 525.08 C 471.65 525.53 475.34 525.60 479.03 525.49 C 478.99 526.50 478.95 527.51 478.93 528.53 C 475.28 528.50 471.64 528.49 468.00 528.51 C 468.00 530.66 468.00 532.83 468.00 535.00 C 472.33 534.99 476.67 535.00 481.00 535.01 C 481.00 535.63 481.00 536.87 481.00 537.49 C 475.50 537.51 470.00 537.51 464.50 537.50 C 464.49 530.33 464.49 523.17 464.50 516.01 Z" />
<path fill="#eabc6c" opacity="1.00" d=" M 508.00 516.01 C 512.65 516.10 517.48 515.49 521.97 516.98 C 524.79 518.16 525.31 521.23 525.10 523.95 C 524.31 524.75 523.55 525.57 522.78 526.40 C 524.35 527.87 526.91 529.28 526.55 531.82 C 526.37 535.17 523.00 537.40 519.87 537.45 C 515.93 537.56 511.99 537.63 508.07 538.02 C 507.92 530.68 508.02 523.34 508.00 516.01 M 511.51 519.51 C 511.50 521.32 511.50 523.15 511.51 524.98 C 514.36 524.97 517.22 524.98 520.07 525.07 C 521.00 523.48 521.58 521.74 521.50 519.89 C 518.18 519.51 514.84 519.39 511.51 519.51 M 511.51 528.52 C 511.51 530.71 511.51 532.91 511.52 535.11 C 515.64 534.60 521.15 535.47 523.17 530.83 C 520.30 527.28 515.44 528.76 511.51 528.52 Z" />
<path fill="#eabc6c" opacity="1.00" d=" M 543.33 516.11 C 544.06 516.06 545.52 515.97 546.25 515.92 C 549.34 523.20 552.91 530.29 555.50 537.78 C 554.21 537.66 552.91 537.54 551.63 537.43 C 551.09 535.95 550.56 534.49 550.03 533.02 C 546.71 533.03 543.38 532.78 540.09 533.15 C 538.80 534.17 538.61 536.03 537.72 537.38 C 536.53 537.54 535.34 537.64 534.15 537.69 C 537.07 530.44 540.38 523.35 543.33 516.11 M 545.14 520.75 C 543.82 523.89 542.45 527.01 541.05 530.12 C 543.50 529.93 545.96 529.72 548.41 529.43 C 547.30 526.54 546.18 523.66 545.14 520.75 Z" />
<path fill="#eabc6c" opacity="1.00" d=" M 565.01 516.01 C 565.73 516.00 567.18 515.98 567.91 515.97 C 571.81 520.88 575.49 525.97 579.43 530.87 C 579.55 525.91 579.37 520.95 579.68 516.00 C 580.51 516.00 582.16 516.00 582.99 516.00 C 582.98 523.45 583.05 530.91 582.95 538.36 C 581.25 537.82 579.48 537.17 578.47 535.61 C 575.08 531.21 571.84 526.71 568.45 522.32 C 568.53 527.56 568.53 532.81 568.46 538.05 C 567.61 538.00 565.93 537.91 565.08 537.86 C 564.91 530.57 565.02 523.29 565.01 516.01 Z" />
<path fill="#eabc6c" opacity="1.00" d=" M 595.01 515.99 C 596.17 515.99 597.33 516.00 598.51 516.02 C 598.48 519.50 598.49 522.98 598.60 526.46 C 601.98 523.55 604.89 520.14 608.18 517.14 C 609.53 515.70 611.68 516.16 613.44 515.88 C 610.54 519.33 607.61 522.79 604.27 525.83 C 607.63 529.54 610.60 533.58 613.86 537.39 C 612.44 537.43 611.03 537.49 609.62 537.57 C 606.83 534.48 604.40 531.09 601.79 527.86 C 598.73 530.14 597.27 533.78 598.50 537.49 C 597.12 537.48 595.76 537.48 594.41 537.50 C 595.27 530.36 594.94 523.16 595.01 515.99 Z" />
<path fill="#eabc6c" opacity="1.00" d=" M 645.35 516.43 C 650.02 515.06 655.81 516.20 658.73 520.37 C 662.18 525.58 660.83 534.15 654.69 536.74 C 649.22 539.81 641.86 537.70 638.86 532.20 C 635.43 526.44 639.21 518.45 645.35 516.43 M 648.28 519.12 C 642.79 519.81 639.77 526.71 642.67 531.34 C 645.88 537.08 656.38 534.67 656.51 527.98 C 657.60 523.16 653.07 518.49 648.28 519.12 Z" />
<path fill="#eabc6c" opacity="1.00" d=" M 671.11 515.91 C 672.63 516.15 674.68 515.71 675.47 517.46 C 678.73 522.09 682.32 526.47 685.97 530.79 C 686.02 525.86 685.99 520.93 686.00 516.00 C 686.88 516.00 688.63 516.00 689.50 516.00 C 689.47 523.47 689.79 530.98 688.82 538.42 C 685.34 536.97 683.46 533.61 681.19 530.83 C 678.91 528.00 676.68 525.13 674.51 522.22 C 674.50 527.30 674.50 532.37 674.50 537.45 C 673.35 537.49 672.21 537.53 671.07 537.59 C 670.97 530.36 670.92 523.13 671.11 515.91 Z" />
<path fill="#eabc6c" opacity="1.00" d=" M 718.00 516.01 C 722.44 516.05 726.99 515.60 731.34 516.75 C 735.76 517.68 735.63 524.05 732.67 526.56 C 733.91 527.86 735.76 528.95 735.91 530.94 C 736.70 534.16 733.53 536.94 730.61 537.40 C 726.41 537.70 722.19 537.37 717.99 537.64 C 718.00 530.43 717.99 523.22 718.00 516.01 M 721.53 519.50 C 721.50 521.29 721.48 523.08 721.46 524.88 C 724.32 525.36 727.24 525.57 730.13 525.11 C 730.49 523.72 730.87 522.35 731.26 520.99 C 728.38 518.99 724.82 519.48 721.53 519.50 M 721.62 528.09 C 721.56 530.21 721.51 532.34 721.47 534.48 C 725.02 534.51 728.72 534.92 732.05 533.39 C 732.06 532.52 732.07 530.80 732.07 529.93 C 728.98 527.80 725.20 527.86 721.62 528.09 Z" />
<path fill="#eabc6c" opacity="1.00" d=" M 746.67 516.00 C 747.50 516.00 749.16 516.00 749.99 516.00 C 750.01 522.16 749.99 528.32 750.01 534.49 C 753.65 534.50 757.29 534.50 760.94 534.47 C 760.96 535.23 761.01 536.74 761.03 537.49 C 756.18 537.51 751.34 537.51 746.51 537.49 C 746.56 530.33 746.31 523.15 746.67 516.00 Z" />
<path fill="#eabc6c" opacity="1.00" d=" M 775.42 516.54 C 780.00 515.21 786.09 515.61 788.92 520.01 C 792.75 525.17 791.28 533.42 785.67 536.67 C 781.53 538.79 776.03 538.57 772.42 535.50 C 769.27 532.64 766.99 527.88 768.71 523.68 C 769.78 520.48 772.25 517.75 775.42 516.54 M 778.23 519.16 C 774.87 519.77 772.32 522.71 772.09 526.11 C 771.26 530.65 775.24 535.29 779.96 534.61 C 786.09 534.77 789.33 526.83 785.95 522.16 C 784.03 520.12 781.06 518.60 778.23 519.16 Z" />
<path fill="#eabc6c" opacity="1.00" d=" M 806.05 517.17 C 810.83 514.70 816.86 515.84 820.65 519.59 C 819.82 520.40 819.00 521.22 818.20 522.05 C 815.76 520.31 812.84 518.43 809.72 519.42 C 803.19 520.74 802.20 531.28 808.28 533.94 C 811.79 535.93 815.90 534.13 818.27 531.24 C 819.20 532.20 820.14 533.15 821.09 534.12 C 816.78 538.44 809.27 539.74 804.38 535.67 C 798.38 531.13 799.45 520.61 806.05 517.17 Z" />
<path fill="#eabc6c" opacity="1.00" d=" M 831.01 515.99 C 832.17 515.99 833.33 516.00 834.51 516.02 C 834.53 519.69 834.51 523.35 834.39 527.02 C 837.61 523.69 840.79 520.31 844.17 517.14 C 845.37 515.69 847.39 516.21 849.04 516.06 C 846.63 519.70 843.52 522.77 840.71 526.08 C 843.88 529.98 846.98 533.93 850.09 537.88 C 848.55 537.82 847.04 537.76 845.53 537.71 C 843.09 534.63 840.65 531.57 838.30 528.43 C 837.03 529.69 835.76 530.95 834.51 532.22 C 834.49 533.96 834.49 535.71 834.49 537.46 C 833.35 537.50 832.21 537.54 831.08 537.60 C 830.91 530.39 831.02 523.19 831.01 515.99 Z" />
<path fill="#eabc6c" opacity="1.00" d=" M 860.42 519.30 C 864.64 514.72 872.76 514.70 877.02 519.23 C 876.97 520.49 875.84 521.32 875.27 522.36 C 872.68 520.25 869.27 518.10 865.85 519.63 C 859.80 521.62 859.32 531.43 865.18 534.00 C 868.63 535.73 872.39 534.00 875.00 531.58 C 875.98 532.47 876.99 533.37 877.99 534.28 C 873.80 538.29 866.76 539.58 861.90 536.08 C 856.53 532.42 855.82 523.83 860.42 519.30 Z" />
<path fill="#eabc6c" opacity="1.00" d=" M 887.72 516.04 C 888.65 515.96 890.50 515.79 891.43 515.70 C 891.51 518.81 891.51 521.91 891.48 525.03 C 894.93 525.52 898.43 525.62 901.92 525.50 C 902.26 522.34 902.51 519.18 902.57 516.01 C 903.69 516.00 904.82 516.00 905.97 516.01 C 906.01 523.28 906.06 530.57 905.93 537.85 C 904.77 537.71 903.62 537.57 902.48 537.45 C 902.49 534.46 902.49 531.48 902.49 528.50 C 898.82 528.50 895.17 528.50 891.52 528.51 C 891.50 531.50 891.49 534.50 891.49 537.50 C 890.61 537.50 888.86 537.50 887.98 537.50 C 888.44 530.33 886.89 523.20 887.72 516.04 Z" />
<path fill="#eabc6c" opacity="1.00" d=" M 924.95 515.98 C 925.65 515.98 927.07 515.99 927.77 515.99 C 931.33 522.96 934.01 530.32 937.11 537.50 C 935.78 537.50 934.47 537.51 933.16 537.53 C 932.55 535.85 931.95 534.17 931.36 532.50 C 927.97 532.45 924.59 532.49 921.21 532.66 C 920.57 534.27 919.94 535.89 919.33 537.52 C 918.00 537.49 916.67 537.47 915.36 537.47 C 918.60 530.33 921.68 523.11 924.95 515.98 M 926.55 520.23 C 925.04 523.41 923.71 526.67 922.35 529.91 C 924.86 529.66 927.37 529.52 929.90 529.43 C 928.85 526.33 927.75 523.26 926.55 520.23 Z" />
<path fill="#eabc6c" opacity="1.00" d=" M 947.00 516.00 C 947.88 516.00 949.62 516.00 950.50 516.00 C 950.43 523.35 950.70 530.72 950.31 538.07 C 949.48 537.90 947.83 537.55 947.00 537.38 C 947.00 530.25 946.99 523.13 947.00 516.00 Z" />
<path fill="#eabc6c" opacity="1.00" d=" M 962.55 515.93 C 963.42 515.96 965.17 516.01 966.05 516.03 C 969.51 521.22 973.63 525.90 977.54 530.75 C 977.47 525.85 977.49 520.96 977.49 516.07 C 978.37 515.96 980.11 515.76 980.98 515.66 C 981.01 523.03 980.99 530.41 981.00 537.79 C 979.97 537.64 978.95 537.50 977.94 537.37 C 973.94 532.49 970.16 527.44 966.07 522.65 C 965.89 527.12 966.13 531.59 965.96 536.07 C 966.29 538.01 963.83 537.90 962.66 538.32 C 962.34 530.86 962.51 523.39 962.55 515.93 Z" />
</g>
<g id="#c39442ff">
<path fill="#c39442" opacity="1.00" d=" M 746.47 474.46 C 755.90 470.45 764.88 465.48 774.12 461.06 C 783.56 465.51 792.90 470.17 802.16 474.97 C 783.30 474.94 764.43 475.17 745.57 474.85 C 745.80 474.75 746.25 474.56 746.47 474.46 Z" />
</g>
</svg>
