<svg width="48" height="48" viewBox="0 0 48 48" fill="none" xmlns="http://www.w3.org/2000/svg">
<g clip-path="url(#clip0_1411_1684)">
<mask id="mask0_1411_1684" style="mask-type:luminance" maskUnits="userSpaceOnUse" x="0" y="0" width="48" height="48">
<path d="M0 3.8147e-06H48V48H0V3.8147e-06Z" fill="white"/>
</mask>
<g mask="url(#mask0_1411_1684)">
<path fill-rule="evenodd" clip-rule="evenodd" d="M13.1832 32.2685C11.0893 32.9756 8.78486 32.137 7.63535 30.2493L7.04887 30.6065L7.63535 30.2493L3.73826 23.8499C2.02667 21.0392 1.68553 17.603 2.81107 14.5107L6.77379 3.6233L6.11307 3.38282L6.77379 3.6233C7.41001 1.87527 9.34287 0.97395 11.0909 1.61017L28.945 8.10854L29.1855 7.44782L28.945 8.10854C30.693 8.74475 31.5944 10.6777 30.9582 12.4257L26.9954 23.3131C25.8699 26.4054 23.3998 28.8184 20.282 29.8713L13.1832 32.2685L13.1832 32.2685ZM13.6331 33.6009C10.9161 34.5184 7.92589 33.4302 6.43428 30.9807L2.53719 24.5813L3.13773 24.2156L2.53719 24.5813C0.603404 21.4058 0.217981 17.5235 1.48963 14.0297L5.45235 3.14233C6.35419 0.664494 9.09402 -0.613122 11.5719 0.288723L29.426 6.78709C31.9038 7.68894 33.1814 10.4289 32.2796 12.9067L28.3169 23.7941C27.0452 27.2878 24.2545 30.0141 20.7319 31.2037L20.5222 30.5826L20.7319 31.2037L13.6331 33.6009C13.6331 33.6009 13.6331 33.6009 13.6331 33.6009Z" fill="url(#paint0_linear_1411_1684)"/>
<path fill-rule="evenodd" clip-rule="evenodd" d="M18.5583 23.6558C17.1359 25.3162 14.7831 26.01 12.6081 25.2184L12.3676 25.8791L12.6081 25.2184C10.4331 24.4267 9.07672 22.3829 9.05451 20.1967C10.2767 21.212 11.7977 22.0872 13.5196 22.7139L13.5196 22.7139C15.2417 23.3407 16.9693 23.6479 18.5583 23.6558ZM12.1272 26.5399C15.4115 27.7352 19.0133 26.2441 20.5404 23.1936C20.6562 22.9624 20.6357 22.6864 20.4871 22.4748C20.3386 22.2632 20.0859 22.1502 19.8291 22.1806C18.1213 22.3826 16.0761 22.1479 14.0006 21.3925C11.9252 20.6371 10.2076 19.5022 9.02926 18.2498C8.8521 18.0615 8.5859 17.9856 8.33609 18.0521C8.08627 18.1187 7.89314 18.317 7.83319 18.5685C7.04209 21.887 8.84287 25.3444 12.1272 26.5399L12.1272 26.5399Z" fill="url(#paint1_linear_1411_1684)"/>
<path fill-rule="evenodd" clip-rule="evenodd" d="M13.7011 15.43C14.0778 15.3357 14.3068 14.954 14.2126 14.5772C13.9156 13.39 12.9826 12.356 11.6846 11.8836M13.7011 15.43C13.3244 15.5242 12.9426 15.2952 12.8484 14.9185ZM12.8484 14.9185C12.6721 14.2141 12.0922 13.5284 11.2036 13.205ZM7.86007 13.3041C8.08807 13.6184 8.52772 13.6884 8.84207 13.4604C9.43001 13.034 10.3149 12.8815 11.2036 13.205L11.2036 13.205M7.86007 13.3041C7.63208 12.9897 7.70208 12.5501 8.01643 12.3221ZM8.01643 12.3221C9.00723 11.6035 10.3865 11.4111 11.6845 11.8836Z" fill="url(#paint2_linear_1411_1684)"/>
<path fill-rule="evenodd" clip-rule="evenodd" d="M23.9032 19.1439C24.28 19.0496 24.509 18.6678 24.4147 18.2911C24.1177 17.1038 23.1847 16.0698 21.8867 15.5974M23.9032 19.1439C23.5265 19.2381 23.1447 19.0091 23.0505 18.6324ZM23.0505 18.6324C22.8743 17.9279 22.2944 17.2423 21.4058 16.9189ZM18.0622 17.0178C18.2902 17.3322 18.7298 17.4022 19.0442 17.1742C19.6321 16.7479 20.5171 16.5954 21.4057 16.9189L21.4058 16.9189M18.0622 17.0178C17.8342 16.7034 17.9043 16.2638 18.2186 16.0358ZM18.2186 16.0358C19.2094 15.3173 20.5887 15.125 21.8867 15.5974Z" fill="url(#paint3_linear_1411_1684)"/>
<path fill-rule="evenodd" clip-rule="evenodd" d="M15.8157 10.5254C15.9485 10.1605 15.7604 9.75706 15.3955 9.62424C13.3684 8.88646 11.6484 8.83528 10.4224 8.97638C9.81062 9.04679 9.32343 9.16483 8.98332 9.26797C8.81321 9.31955 8.67964 9.36749 8.58538 9.40402C8.53824 9.42229 8.50089 9.43773 8.47368 9.44936C8.46008 9.45518 8.449 9.46005 8.4405 9.46385C8.43625 9.46575 8.43264 9.46739 8.42968 9.46874L8.42572 9.47055L8.42411 9.4713L8.4234 9.47163C8.42307 9.47178 8.42275 9.47193 8.71989 10.1092L8.42275 9.47193C8.0708 9.63604 7.91853 10.0544 8.08264 10.4063C8.2463 10.7573 8.66276 10.9097 9.01409 10.7478C9.0142 10.7478 9.01434 10.7477 9.01449 10.7476C9.0161 10.7469 9.02014 10.7451 9.02658 10.7424C9.03946 10.7369 9.06191 10.7275 9.09359 10.7152C9.15696 10.6907 9.25713 10.6544 9.39141 10.6137C9.6601 10.5322 10.0643 10.4331 10.5831 10.3734C11.6182 10.2543 13.1157 10.291 14.9145 10.9457C15.2794 11.0785 15.6829 10.8904 15.8157 10.5254ZM9.01645 10.7467C9.01645 10.7467 9.01645 10.7467 9.01645 10.7467C9.01645 10.7467 9.01645 10.7467 9.01645 10.7467L9.01645 10.7467Z" fill="url(#paint4_linear_1411_1684)"/>
<path fill-rule="evenodd" clip-rule="evenodd" d="M25.5958 16.7806C25.9478 16.6165 26.1 16.1982 25.9359 15.8462L25.2987 16.1434C25.9359 15.8462 25.9358 15.8459 25.9356 15.8456L25.9353 15.8449L25.9345 15.8433L25.9327 15.8393C25.9313 15.8364 25.9296 15.8328 25.9275 15.8286C25.9234 15.8202 25.9181 15.8094 25.9114 15.7962C25.898 15.7698 25.8794 15.734 25.855 15.6897C25.8063 15.6011 25.7348 15.4785 25.6376 15.3297C25.4434 15.032 25.146 14.6285 24.7227 14.1813C23.8742 13.2852 22.5237 12.2188 20.4965 11.4809C20.1316 11.3481 19.7281 11.5363 19.5953 11.9012C19.4625 12.2661 19.6507 12.6696 20.0156 12.8024C21.8144 13.4571 22.9852 14.3916 23.7015 15.1482C24.0606 15.5274 24.3065 15.8631 24.46 16.0982C24.5367 16.2157 24.5901 16.3079 24.6229 16.3674C24.6392 16.3972 24.6504 16.4188 24.6567 16.4313C24.6599 16.4375 24.6619 16.4415 24.6626 16.4431C24.6627 16.4432 24.6628 16.4434 24.6628 16.4435C24.8279 16.7933 25.2449 16.9443 25.5958 16.7806Z" fill="url(#paint5_linear_1411_1684)"/>
<path fill-rule="evenodd" clip-rule="evenodd" d="M40.3644 44.3254C39.2149 46.2131 36.9106 47.0518 34.8166 46.3447L27.7178 43.9474C27.7178 43.9474 27.7178 43.9474 27.7178 43.9474C24.6 42.8945 22.1299 40.4815 21.0044 37.3893C21.0044 37.3893 21.0044 37.3893 21.0044 37.3893L19.7478 33.937C19.615 33.572 19.2115 33.3839 18.8466 33.5167C18.4817 33.6495 18.2936 34.053 18.4264 34.4179L19.6829 37.8703L19.6829 37.8703C20.9546 41.364 23.7453 44.0902 27.2679 45.2798L27.2679 45.2798L34.3667 47.677C37.0838 48.5946 40.0739 47.5062 41.5655 45.0568L45.4626 38.6575L44.8621 38.2917L45.4626 38.6575C47.3964 35.482 47.7818 31.5996 46.5103 28.1059L42.5475 17.2184C41.6457 14.7406 38.9059 13.463 36.4279 14.3648L36.4279 14.3648L33.2784 15.5112C32.9135 15.644 32.7253 16.0475 32.8582 16.4124C32.991 16.7773 33.3945 16.9654 33.7594 16.8326L36.9089 15.6863C38.657 15.05 40.5899 15.9514 41.2261 17.6994L45.1888 28.5868C46.3143 31.6791 45.9731 35.1154 44.2615 37.926L40.3644 44.3254L40.965 44.6911L40.3644 44.3254Z" fill="url(#paint6_linear_1411_1684)"/>
<path fill-rule="evenodd" clip-rule="evenodd" d="M29.2799 41.405C29.5297 41.4716 29.7959 41.3957 29.9731 41.2074C31.1515 39.9549 32.869 38.8201 34.9445 38.0646L34.704 37.4039L34.9445 38.0646C37.0199 37.3092 39.0652 37.0745 40.773 37.2765C41.0297 37.3069 41.2824 37.1939 41.431 36.9823C41.5796 36.7707 41.6 36.4947 41.4843 36.2635C39.9571 33.213 36.3553 31.7219 33.071 32.9172L33.071 32.9173C29.7867 34.1127 27.9859 37.5701 28.777 40.8886C28.837 41.1401 29.0301 41.3384 29.2799 41.405ZM29.9984 39.2604C30.0206 37.0742 31.377 35.0304 33.552 34.2387L33.3115 33.578L33.552 34.2387C35.727 33.4471 38.0797 34.1409 39.5021 35.8013C37.9132 35.8092 36.1855 36.1164 34.4635 36.7432L34.4635 36.7432C32.7415 37.37 31.2206 38.2451 29.9984 39.2604ZM33.3115 33.578L33.3104 33.5749L33.3115 33.578Z" fill="url(#paint7_linear_1411_1684)"/>
<path fill-rule="evenodd" clip-rule="evenodd" d="M26.8265 30.8624C26.0524 31.4057 25.1583 31.4885 24.4799 31.2296C24.1171 31.0912 23.7107 31.2731 23.5723 31.6359C23.4338 31.9987 23.6157 32.405 23.9785 32.5435C25.122 32.9798 26.5039 32.8069 27.6345 32.0134L27.6345 32.0133C28.765 31.2197 29.3971 29.9788 29.3753 28.7551C29.3684 28.3668 29.048 28.0577 28.6598 28.0646C28.2715 28.0715 27.9624 28.3918 27.9693 28.7801C27.9822 29.5062 27.6005 30.319 26.8266 30.8624" fill="url(#paint8_linear_1411_1684)"/>
<path fill-rule="evenodd" clip-rule="evenodd" d="M33.2269 27.3539C33.9967 28.3053 35.2786 28.8497 36.6548 28.7309C38.031 28.6122 39.2006 27.8562 39.7962 26.7871C39.9851 26.4478 39.8633 26.0196 39.524 25.8306C39.1848 25.6417 38.7566 25.7635 38.5676 26.1028C38.2142 26.7372 37.476 27.2486 36.5339 27.3299L36.5339 27.3299C35.5918 27.4112 34.7769 27.0339 34.3201 26.4693C34.0758 26.1674 33.6331 26.1207 33.3312 26.365C33.0293 26.6093 32.9826 27.052 33.2269 27.3539Z" fill="url(#paint9_linear_1411_1684)"/>
<path fill-rule="evenodd" clip-rule="evenodd" d="M32.1842 24.6006C32.317 24.9655 32.7205 25.1537 33.0854 25.0209C34.8842 24.3662 36.3817 24.3295 37.4168 24.4486C37.9356 24.5083 38.3398 24.6074 38.6085 24.6889C38.7428 24.7296 38.8429 24.7659 38.9063 24.7904C38.938 24.8027 38.9604 24.812 38.9733 24.8176C38.9798 24.8203 38.9838 24.8221 38.9854 24.8228L38.9849 24.8226L38.984 24.8222L38.9835 24.8219C38.9832 24.8218 38.9829 24.8216 39.2666 24.2132L38.9829 24.8216C38.9838 24.8221 38.9848 24.8225 38.9858 24.823C38.9863 24.8232 38.9863 24.8232 38.986 24.8231L38.9854 24.8228C38.9856 24.8229 38.9857 24.8229 38.9858 24.823C39.3371 24.9849 39.7536 24.8325 39.9173 24.4815C40.0814 24.1296 39.9291 23.7112 39.5772 23.5471L39.28 24.1844C39.5772 23.5471 39.5768 23.547 39.5765 23.5468L39.5758 23.5465L39.5742 23.5457L39.5702 23.5439C39.5673 23.5426 39.5637 23.5409 39.5594 23.539C39.5509 23.5352 39.5398 23.5304 39.5262 23.5246C39.499 23.5129 39.4617 23.4975 39.4145 23.4792C39.3203 23.4427 39.1867 23.3947 39.0166 23.3432C38.6765 23.24 38.1893 23.122 37.5775 23.0516C36.3515 22.9105 34.6315 22.9617 32.6044 23.6994C32.2395 23.8323 32.0514 24.2357 32.1842 24.6006Z" fill="url(#paint10_linear_1411_1684)"/>
</g>
</g>
<defs>
<linearGradient id="paint0_linear_1411_1684" x1="0.751465" y1="16.9617" x2="32.5688" y2="16.9617" gradientUnits="userSpaceOnUse">
<stop offset="1" stop-color="#B1C72E"/>
</linearGradient>
<linearGradient id="paint1_linear_1411_1684" x1="7.64795" y1="22.4903" x2="20.6148" y2="22.4903" gradientUnits="userSpaceOnUse">
<stop offset="1" stop-color="#B1C72E"/>
</linearGradient>
<linearGradient id="paint2_linear_1411_1684" x1="7.72607" y1="13.5382" x2="14.2338" y2="13.5382" gradientUnits="userSpaceOnUse">
<stop offset="1" stop-color="#B1C72E"/>
</linearGradient>
<linearGradient id="paint3_linear_1411_1684" x1="17.9282" y1="17.252" x2="24.4359" y2="17.252" gradientUnits="userSpaceOnUse">
<stop offset="1" stop-color="#B1C72E"/>
</linearGradient>
<linearGradient id="paint4_linear_1411_1684" x1="8.0166" y1="9.95108" x2="15.8583" y2="9.95108" gradientUnits="userSpaceOnUse">
<stop offset="1" stop-color="#B1C72E"/>
</linearGradient>
<linearGradient id="paint5_linear_1411_1684" x1="19.5527" y1="14.1425" x2="26.002" y2="14.1425" gradientUnits="userSpaceOnUse">
<stop offset="1" stop-color="#B1C72E"/>
</linearGradient>
<linearGradient id="paint6_linear_1411_1684" x1="18.3838" y1="31.0378" x2="47.2484" y2="31.0378" gradientUnits="userSpaceOnUse">
<stop offset="1" stop-color="#B1C72E"/>
</linearGradient>
<linearGradient id="paint7_linear_1411_1684" x1="28.5918" y1="36.9668" x2="41.5587" y2="36.9668" gradientUnits="userSpaceOnUse">
<stop offset="1" stop-color="#B1C72E"/>
</linearGradient>
<linearGradient id="paint8_linear_1411_1684" x1="23.5259" y1="30.4209" x2="29.3758" y2="30.4209" gradientUnits="userSpaceOnUse">
<stop offset="1" stop-color="#B1C72E"/>
</linearGradient>
<linearGradient id="paint9_linear_1411_1684" x1="33.0703" y1="27.2444" x2="39.8852" y2="27.2444" gradientUnits="userSpaceOnUse">
<stop offset="1" stop-color="#B1C72E"/>
</linearGradient>
<linearGradient id="paint10_linear_1411_1684" x1="32.1416" y1="24.0263" x2="39.9833" y2="24.0263" gradientUnits="userSpaceOnUse">
<stop offset="1" stop-color="#B1C72E"/>
</linearGradient>
<clipPath id="clip0_1411_1684">
<rect width="48" height="48" fill="white"/>
</clipPath>
</defs>
</svg>
