<svg width="48" height="48" viewBox="0 0 48 48" fill="none" xmlns="http://www.w3.org/2000/svg">
<mask id="mask0_1411_1609" style="mask-type:luminance" maskUnits="userSpaceOnUse" x="0" y="0" width="48" height="48">
<path d="M0 3.8147e-06H48V48H0V3.8147e-06Z" fill="white"/>
</mask>
<g mask="url(#mask0_1411_1609)">
<path fill-rule="evenodd" clip-rule="evenodd" d="M7.34961 6.64455C7.34961 8.43325 8.80959 9.89355 10.5984 9.89355C10.9867 9.89355 11.3015 9.57875 11.3015 9.19043C11.3015 8.8021 10.9867 8.4873 10.5984 8.4873C9.58638 8.4873 8.75586 7.65673 8.75586 6.64455V3.24827C8.75586 2.23609 9.58638 1.40552 10.5984 1.40552C11.6137 1.40552 12.4438 2.23662 12.4438 3.24827V4.94637C12.4438 5.33469 12.7586 5.64949 13.1469 5.64949C13.5352 5.64949 13.85 5.33469 13.85 4.94637V3.24827C13.85 1.45906 12.3894 -0.000725985 10.5984 -0.000725985C8.80959 -0.000725985 7.34961 1.45958 7.34961 3.24827V6.64455Z" fill="url(#paint0_linear_1411_1609)"/>
<path fill-rule="evenodd" clip-rule="evenodd" d="M16.5044 6.64455C16.5044 8.43328 17.9645 9.89355 19.7533 9.89355C20.1416 9.89355 20.4564 9.57875 20.4564 9.19043C20.4564 8.8021 20.1416 8.4873 19.7533 8.4873C18.7412 8.4873 17.9106 7.6567 17.9106 6.64455V3.24827C17.9106 2.23613 18.7412 1.40552 19.7533 1.40552C20.7686 1.40552 21.5987 2.23662 21.5987 3.24827V4.94637C21.5987 5.33469 21.9135 5.64949 22.3018 5.64949C22.6901 5.64949 23.0049 5.33469 23.0049 4.94637V3.24827C23.0049 1.45906 21.5443 -0.000725985 19.7533 -0.000725985C17.9645 -0.000725985 16.5044 1.45954 16.5044 3.24827V6.64455Z" fill="url(#paint1_linear_1411_1609)"/>
<path fill-rule="evenodd" clip-rule="evenodd" d="M25.6592 6.64455C25.6592 8.43328 27.1193 9.89355 28.9081 9.89355C29.2964 9.89355 29.6112 9.57875 29.6112 9.19043C29.6112 8.8021 29.2964 8.4873 28.9081 8.4873C27.896 8.4873 27.0654 7.6567 27.0654 6.64455V3.24827C27.0654 2.23613 27.896 1.40552 28.9081 1.40552C29.9234 1.40552 30.7535 2.23662 30.7535 3.24827V4.94637C30.7535 5.33469 31.0683 5.64949 31.4566 5.64949C31.8449 5.64949 32.1597 5.33469 32.1597 4.94637V3.24827C32.1597 1.45906 30.6991 -0.000725985 28.9081 -0.000725985C27.1193 -0.000725985 25.6592 1.45954 25.6592 3.24827V6.64455Z" fill="url(#paint2_linear_1411_1609)"/>
<path fill-rule="evenodd" clip-rule="evenodd" d="M34.814 6.64455C34.814 8.43377 36.2746 9.89355 38.0656 9.89355C38.4539 9.89355 38.7687 9.57875 38.7687 9.19043C38.7687 8.8021 38.4539 8.4873 38.0656 8.4873C37.0503 8.4873 36.2202 7.65621 36.2202 6.64455V3.24827C36.2202 2.23662 37.0503 1.40552 38.0656 1.40552C39.0777 1.40552 39.9082 2.23613 39.9082 3.24827V4.94637C39.9082 5.33469 40.223 5.64949 40.6114 5.64949C40.9997 5.64949 41.3145 5.33469 41.3145 4.94637V3.24827C41.3145 1.45954 39.8544 -0.000725985 38.0656 -0.000725985C36.2746 -0.000725985 34.814 1.45906 34.814 3.24827V6.64455Z" fill="url(#paint3_linear_1411_1609)"/>
<path fill-rule="evenodd" clip-rule="evenodd" d="M31.989 38.0951C32.232 37.7922 32.1834 37.3497 31.8804 37.1067L15.0537 23.612C14.7508 23.369 14.3082 23.4177 14.0653 23.7206C13.8223 24.0235 13.871 24.4661 14.1739 24.709L31.0006 38.2038C31.3035 38.4467 31.7461 38.3981 31.989 38.0951Z" fill="url(#paint4_linear_1411_1609)"/>
<path fill-rule="evenodd" clip-rule="evenodd" d="M26.6081 25.7322C26.9111 25.9751 27.3536 25.9263 27.5965 25.6233L30.2167 22.3547C30.4596 22.0517 30.4109 21.6091 30.1079 21.3663C29.8049 21.1234 29.3624 21.1721 29.1195 21.4751L26.4993 24.7438C26.2564 25.0468 26.3051 25.4893 26.6081 25.7322Z" fill="url(#paint5_linear_1411_1609)"/>
<path fill-rule="evenodd" clip-rule="evenodd" d="M21.5549 26.7013C21.8474 26.9569 22.2916 26.9269 22.5471 26.6345C23.4762 25.5711 24.5944 24.2052 25.4497 22.5669C25.6294 22.2227 25.4961 21.7979 25.1518 21.6182C24.8076 21.4385 24.3829 21.5718 24.2031 21.9161C23.4269 23.403 22.398 24.6679 21.4881 25.7092C21.2326 26.0016 21.2625 26.4458 21.5549 26.7013Z" fill="url(#paint6_linear_1411_1609)"/>
<path fill-rule="evenodd" clip-rule="evenodd" d="M26.7589 30.8741C27.0717 31.1041 27.5118 31.0369 27.7418 30.7241C28.5599 29.6113 29.5724 28.3296 30.8538 27.253C31.1511 27.0032 31.1896 26.5597 30.9398 26.2624C30.69 25.9651 30.2465 25.9266 29.9491 26.1764C28.5359 27.3638 27.4436 28.7557 26.6088 29.8911C26.3788 30.204 26.446 30.6441 26.7589 30.8741Z" fill="url(#paint7_linear_1411_1609)"/>
<path fill-rule="evenodd" clip-rule="evenodd" d="M30.0134 33.4853C30.33 33.7102 30.7689 33.6358 30.9937 33.3192C32.0978 31.7645 33.6961 29.8881 36.5898 29.7504C36.9777 29.7319 37.2772 29.4025 37.2587 29.0146C37.2403 28.6268 36.9109 28.3273 36.523 28.3457C32.9378 28.5163 30.9965 30.8865 29.8472 32.5049C29.6223 32.8215 29.6967 33.2605 30.0134 33.4853Z" fill="url(#paint8_linear_1411_1609)"/>
<path fill-rule="evenodd" clip-rule="evenodd" d="M19.3892 23.7549C19.7231 23.9531 20.1545 23.8431 20.3528 23.5092C20.7822 22.7859 21.3781 21.6129 21.1857 19.914C21.142 19.5282 20.7937 19.2508 20.4079 19.2945C20.022 19.3382 19.7446 19.6864 19.7883 20.0723C19.9306 21.3286 19.5061 22.1806 19.1436 22.7913C18.9453 23.1253 19.0553 23.5566 19.3892 23.7549Z" fill="url(#paint9_linear_1411_1609)"/>
<path fill-rule="evenodd" clip-rule="evenodd" d="M10.4921 47.9736C10.7686 47.9254 11.0679 47.8115 11.3707 47.6721C11.3852 47.6654 11.3996 47.6582 11.4137 47.6505L30.4833 37.2358C30.6896 37.1231 30.8259 36.9148 30.8466 36.6806C30.8673 36.4464 30.7696 36.2174 30.5862 36.0702L16.3478 24.6484C16.1644 24.5013 15.9197 24.4556 15.6955 24.5266C15.4714 24.5976 15.2976 24.7759 15.2323 25.0018L9.20787 45.8603C9.20346 45.8756 9.19956 45.891 9.1962 45.9066C9.12259 46.2464 9.07625 46.5714 9.09117 46.8567C9.10556 47.1319 9.18568 47.5117 9.51428 47.771C9.84108 48.029 10.2268 48.0198 10.4921 47.9736ZM10.5657 46.2269L16.2907 26.4054L28.8835 36.5072L10.7613 46.4045C10.6691 46.4465 10.5872 46.4809 10.5147 46.5085C10.5262 46.4273 10.543 46.3338 10.5657 46.2269Z" fill="url(#paint10_linear_1411_1609)"/>
<path fill-rule="evenodd" clip-rule="evenodd" d="M22.2363 41.7274C22.5394 41.4845 22.5881 41.042 22.3453 40.739L14.6229 31.103C14.3801 30.8 13.9376 30.7512 13.6345 30.994C13.3315 31.2369 13.2827 31.6794 13.5256 31.9824L21.2479 41.6184C21.4908 41.9214 21.9333 41.9702 22.2363 41.7274Z" fill="url(#paint11_linear_1411_1609)"/>
<path fill-rule="evenodd" clip-rule="evenodd" d="M18.0646 44.0046C18.3676 43.7617 18.4162 43.3192 18.1733 43.0162L13.0339 36.6063C12.791 36.3034 12.3485 36.2547 12.0455 36.4976C11.7426 36.7405 11.6939 37.183 11.9368 37.486L17.0762 43.8959C17.3191 44.1988 17.7616 44.2475 18.0646 44.0046Z" fill="url(#paint12_linear_1411_1609)"/>
<path fill-rule="evenodd" clip-rule="evenodd" d="M15.115 45.6149C15.418 45.372 15.4666 44.9294 15.2237 44.6265L11.9099 40.4942C11.6669 40.1912 11.2244 40.1426 10.9215 40.3855C10.6185 40.6285 10.5699 41.071 10.8128 41.3739L14.1266 45.5063C14.3695 45.8092 14.8121 45.8579 15.115 45.6149Z" fill="url(#paint13_linear_1411_1609)"/>
<path fill-rule="evenodd" clip-rule="evenodd" d="M25.1865 40.1171C25.4895 39.8742 25.5383 39.4317 25.2955 39.1287L21.2669 34.1007C21.0241 33.7976 20.5816 33.7488 20.2785 33.9916C19.9755 34.2344 19.9267 34.6769 20.1695 34.98L24.1981 40.008C24.4409 40.311 24.8834 40.3599 25.1865 40.1171ZM19.0822 32.5008C19.3853 32.258 19.4342 31.8155 19.1915 31.5124L15.7476 27.2125C15.5048 26.9094 15.0623 26.8605 14.7592 27.1033C14.4561 27.346 14.4072 27.7885 14.65 28.0916L18.0939 32.3915C18.3366 32.6946 18.7791 32.7435 19.0822 32.5008Z" fill="url(#paint14_linear_1411_1609)"/>
<path fill-rule="evenodd" clip-rule="evenodd" d="M2.41211 41.07C2.41211 41.6921 2.91825 42.1982 3.54039 42.1982H11.2017C11.5901 42.1982 11.9049 41.8834 11.9049 41.4951C11.9049 41.1068 11.5901 40.792 11.2017 40.792H3.81836V5.64981H44.1814V40.792H21.2176C20.8293 40.792 20.5145 41.1068 20.5145 41.4951C20.5145 41.8834 20.8293 42.1982 21.2176 42.1982H44.4594C45.0815 42.1982 45.5876 41.6921 45.5876 41.07V5.37193C45.5876 4.7498 45.0816 4.24356 44.4594 4.24356H3.54039C2.91815 4.24356 2.41211 4.74981 2.41211 5.37193V41.07Z" fill="url(#paint15_linear_1411_1609)"/>
<path fill-rule="evenodd" clip-rule="evenodd" d="M2.41211 15.8398C2.41211 16.2282 2.72691 16.543 3.11523 16.543H22.2539C22.6422 16.543 22.957 16.2282 22.957 15.8398C22.957 15.4515 22.6422 15.1367 22.2539 15.1367H3.11523C2.72691 15.1367 2.41211 15.4515 2.41211 15.8398ZM24.7955 15.8398C24.7955 16.2282 25.1103 16.543 25.4986 16.543H44.8845C45.2728 16.543 45.5876 16.2282 45.5876 15.8398C45.5876 15.4515 45.2728 15.1367 44.8845 15.1367H25.4986C25.1103 15.1367 24.7955 15.4515 24.7955 15.8398ZM2.41211 12.5393C2.41211 12.9276 2.72691 13.2424 3.11523 13.2424H44.8845C45.2728 13.2424 45.5876 12.9276 45.5876 12.5393C45.5876 12.151 45.2728 11.8362 44.8845 11.8362H3.11523C2.72691 11.8362 2.41211 12.151 2.41211 12.5393Z" fill="url(#paint16_linear_1411_1609)"/>
</g>
<defs>
<linearGradient id="paint0_linear_1411_1609" x1="7.34961" y1="4.94641" x2="13.85" y2="4.94641" gradientUnits="userSpaceOnUse">
<stop offset="1" stop-color="#B1C72E"/>
</linearGradient>
<linearGradient id="paint1_linear_1411_1609" x1="16.5044" y1="4.94641" x2="23.0049" y2="4.94641" gradientUnits="userSpaceOnUse">
<stop offset="1" stop-color="#B1C72E"/>
</linearGradient>
<linearGradient id="paint2_linear_1411_1609" x1="25.6592" y1="4.94641" x2="32.1597" y2="4.94641" gradientUnits="userSpaceOnUse">
<stop offset="1" stop-color="#B1C72E"/>
</linearGradient>
<linearGradient id="paint3_linear_1411_1609" x1="34.814" y1="4.94641" x2="41.3145" y2="4.94641" gradientUnits="userSpaceOnUse">
<stop offset="1" stop-color="#B1C72E"/>
</linearGradient>
<linearGradient id="paint4_linear_1411_1609" x1="13.9106" y1="30.9079" x2="32.1437" y2="30.9079" gradientUnits="userSpaceOnUse">
<stop offset="1" stop-color="#B1C72E"/>
</linearGradient>
<linearGradient id="paint5_linear_1411_1609" x1="26.3447" y1="23.5492" x2="30.3712" y2="23.5492" gradientUnits="userSpaceOnUse">
<stop offset="1" stop-color="#B1C72E"/>
</linearGradient>
<linearGradient id="paint6_linear_1411_1609" x1="21.3145" y1="24.2066" x2="25.5297" y2="24.2066" gradientUnits="userSpaceOnUse">
<stop offset="1" stop-color="#B1C72E"/>
</linearGradient>
<linearGradient id="paint7_linear_1411_1609" x1="26.4722" y1="28.5111" x2="31.1046" y2="28.5111" gradientUnits="userSpaceOnUse">
<stop offset="1" stop-color="#B1C72E"/>
</linearGradient>
<linearGradient id="paint8_linear_1411_1609" x1="29.7173" y1="30.9801" x2="37.2595" y2="30.9801" gradientUnits="userSpaceOnUse">
<stop offset="1" stop-color="#B1C72E"/>
</linearGradient>
<linearGradient id="paint9_linear_1411_1609" x1="19.0449" y1="21.5717" x2="21.2228" y2="21.5717" gradientUnits="userSpaceOnUse">
<stop offset="1" stop-color="#B1C72E"/>
</linearGradient>
<linearGradient id="paint10_linear_1411_1609" x1="9.08838" y1="36.2464" x2="30.8494" y2="36.2464" gradientUnits="userSpaceOnUse">
<stop offset="1" stop-color="#B1C72E"/>
</linearGradient>
<linearGradient id="paint11_linear_1411_1609" x1="13.3711" y1="36.3607" x2="22.4998" y2="36.3607" gradientUnits="userSpaceOnUse">
<stop offset="1" stop-color="#B1C72E"/>
</linearGradient>
<linearGradient id="paint12_linear_1411_1609" x1="11.7822" y1="40.2511" x2="18.3279" y2="40.2511" gradientUnits="userSpaceOnUse">
<stop offset="1" stop-color="#B1C72E"/>
</linearGradient>
<linearGradient id="paint13_linear_1411_1609" x1="10.6582" y1="43.0002" x2="15.3783" y2="43.0002" gradientUnits="userSpaceOnUse">
<stop offset="1" stop-color="#B1C72E"/>
</linearGradient>
<linearGradient id="paint14_linear_1411_1609" x1="14.4956" y1="33.6102" x2="25.45" y2="33.6102" gradientUnits="userSpaceOnUse">
<stop offset="1" stop-color="#B1C72E"/>
</linearGradient>
<linearGradient id="paint15_linear_1411_1609" x1="2.41211" y1="23.2209" x2="45.5876" y2="23.2209" gradientUnits="userSpaceOnUse">
<stop offset="1" stop-color="#B1C72E"/>
</linearGradient>
<linearGradient id="paint16_linear_1411_1609" x1="2.41211" y1="14.1896" x2="45.5876" y2="14.1896" gradientUnits="userSpaceOnUse">
<stop offset="1" stop-color="#B1C72E"/>
</linearGradient>
</defs>
</svg>
