<svg width="48" height="48" viewBox="0 0 48 48" fill="none" xmlns="http://www.w3.org/2000/svg">
<mask id="mask0_1411_1566" style="mask-type:luminance" maskUnits="userSpaceOnUse" x="0" y="0" width="48" height="48">
<path d="M0 3.8147e-06H48V48H0V3.8147e-06Z" fill="white"/>
</mask>
<g mask="url(#mask0_1411_1566)">
<path fill-rule="evenodd" clip-rule="evenodd" d="M18.9624 39.6514C17.9336 39.6514 17.0993 38.8184 17.0979 37.7899L17.0979 37.7869L17.0883 36.0904C17.0883 36.0899 17.0883 36.0894 17.0883 36.0888C17.0839 33.3204 16.0657 30.6235 14.1585 28.5937L14.1585 28.5937C11.9138 26.2047 10.5301 23.0003 10.4995 19.4716C10.4357 12.0815 16.4182 5.95638 23.8077 5.85349C27.7462 5.79868 31.3031 7.4292 33.8055 10.0718C34.0725 10.3538 34.5176 10.3659 34.7995 10.0989C35.0815 9.83191 35.0936 9.38688 34.8266 9.10492C32.0654 6.18892 28.136 4.38687 23.7881 4.44738C15.6241 4.56105 9.02277 11.3208 9.09333 19.4838C9.12708 23.3798 10.6564 26.9201 13.1337 29.5566C14.7853 31.3145 15.6786 33.6636 15.6821 36.0924L15.6821 36.0954L15.6916 37.7919C15.6916 37.7924 15.6916 37.793 15.6916 37.7935C15.695 39.5974 17.1586 41.0577 18.9625 41.0576L29.0621 41.0568C30.8702 41.0567 32.335 39.5897 32.3325 37.7817L32.3325 37.7788L32.3229 36.0169C32.3229 36.0163 32.3229 36.0158 32.3229 36.0152C32.3198 33.6292 33.1966 31.32 34.8249 29.6011L34.35 29.1511L34.825 29.6011C37.3548 26.9303 38.9079 23.3221 38.9079 19.3523C38.9079 16.4707 38.0893 13.7781 36.6719 11.4966C36.467 11.1667 36.0335 11.0654 35.7036 11.2704C35.3738 11.4753 35.2725 11.9088 35.4774 12.2387C36.7604 14.3039 37.5016 16.7406 37.5016 19.3523C37.5016 22.9481 36.0964 26.2139 33.804 28.634C31.915 30.6281 30.9126 33.2903 30.9166 36.0189L30.9166 36.0217L30.9263 37.7836C30.9263 37.784 30.9263 37.7844 30.9263 37.7848C30.9271 38.8148 30.0923 39.6505 29.062 39.6505L18.9624 39.6514Z" fill="url(#paint0_linear_1411_1566)"/>
<path fill-rule="evenodd" clip-rule="evenodd" d="M21.422 48C19.6844 48.0002 18.2777 46.5876 18.2852 44.85ZM21.422 48L26.5665 47.9994C26.5665 47.9994 26.5665 47.9994 26.5665 47.9994C28.2933 47.9993 29.6953 46.6035 29.7028 44.8768L29.7225 40.3571C29.7233 40.1701 29.6496 39.9904 29.5176 39.8579C29.3856 39.7254 29.2063 39.6509 29.0193 39.6509L19.0079 39.6519C18.6208 39.652 18.3066 39.9649 18.3049 40.352L18.2852 44.85M19.6914 44.856C19.6914 44.856 19.6914 44.856 19.6914 44.856L19.708 41.0581L28.3132 41.0572L28.2966 44.8707C28.2924 45.8231 27.5191 46.5931 26.5664 46.5932L21.4219 46.5938C20.4633 46.5939 19.6873 45.8146 19.6914 44.856Z" fill="url(#paint1_linear_1411_1566)"/>
<path fill-rule="evenodd" clip-rule="evenodd" d="M20.1932 23.7727C20.2156 24.144 20.5232 24.4336 20.8951 24.4336H27.0985C27.4489 24.4336 27.7458 24.1756 27.7948 23.8286C27.8682 23.3077 28.0253 22.5984 28.381 21.8192L28.381 21.8192C28.7541 21.0017 29.2168 20.3898 29.5949 19.9696L29.5951 19.9693C29.8947 19.636 29.9577 19.1483 29.743 18.7481M21.1064 21.4819C21.3306 22.0451 21.4565 22.5726 21.5264 23.0273ZM21.5264 23.0273H26.5094C26.621 22.5048 26.8024 21.8909 27.1017 21.2353C27.4968 20.3697 27.9756 19.6978 28.393 19.2078C27.8417 18.1935 27.2071 17.1225 26.4767 16.0168L26.4767 16.0168C25.6462 14.7597 24.8063 13.631 23.9922 12.6261C23.1597 13.6382 22.297 14.7884 21.4478 16.0827C20.7448 17.1543 20.1382 18.1917 19.6146 19.1723C20.0962 19.6736 20.6896 20.4344 21.1064 21.4818M19.4986 19.3911C19.4987 19.3911 19.4987 19.391 19.4987 19.391ZM28.5493 19.0292C28.5493 19.0293 28.5492 19.0293 28.5491 19.0294C28.5492 19.0293 28.5493 19.0293 28.5493 19.0292ZM28.5039 19.413C28.5039 19.4131 28.5039 19.4131 28.5039 19.4131ZM20.1932 23.7727C20.1659 23.3195 20.0752 22.6936 19.7999 22.0019ZM19.7999 22.0019L19.7998 22.0018ZM19.7998 22.0018C19.423 21.0549 18.8642 20.3972 18.4538 19.9992ZM18.4537 19.999C18.1089 19.6647 18.0369 19.1492 18.2541 18.7365ZM29.7429 18.748C29.1476 17.6385 28.4552 16.4606 27.65 15.2417C26.7666 13.9043 25.8728 12.7078 25.0084 11.6468M18.2541 18.7363C18.8229 17.6549 19.4899 16.5036 20.272 15.3114ZM22.9835 11.639C22.0979 12.7093 21.1776 13.931 20.272 15.3113L20.272 15.3114M25.0084 11.6468C24.4867 11.0062 23.5102 11.0028 22.9836 11.6388L22.9835 11.639" fill="url(#paint2_linear_1411_1566)"/>
<path fill-rule="evenodd" clip-rule="evenodd" d="M20.1953 26.5713C20.1953 26.9596 20.5101 27.2744 20.8984 27.2744H27.1019C27.4902 27.2744 27.805 26.9596 27.805 26.5713V23.7306C27.805 23.3422 27.4902 23.0274 27.1019 23.0274H20.8984C20.5101 23.0274 20.1953 23.3422 20.1953 23.7306V26.5713ZM21.6016 25.8682V24.4337H26.3987V25.8682H21.6016Z" fill="url(#paint3_linear_1411_1566)"/>
<path fill-rule="evenodd" clip-rule="evenodd" d="M27.8653 41.0566C28.2536 41.0566 28.5684 40.7418 28.5684 40.3535V27.3251C28.5684 26.5194 27.9145 25.869 27.1114 25.869H20.8887C20.0856 25.869 19.4316 26.5194 19.4316 27.3251V37.3163C19.4316 37.7046 19.7464 38.0194 20.1348 38.0194C20.5231 38.0194 20.8379 37.7046 20.8379 37.3163V27.3251C20.8379 27.2986 20.8597 27.2753 20.8887 27.2753H27.1114C27.1404 27.2753 27.1622 27.2986 27.1622 27.3251V40.3535C27.1622 40.7418 27.477 41.0566 27.8653 41.0566Z" fill="url(#paint4_linear_1411_1566)"/>
<path fill-rule="evenodd" clip-rule="evenodd" d="M24 20.248C24.3883 20.248 24.7031 19.9332 24.7031 19.5449V11.868C24.7031 11.4797 24.3883 11.1649 24 11.1649C23.6117 11.1649 23.2969 11.4797 23.2969 11.868V19.5449C23.2969 19.9332 23.6117 20.248 24 20.248Z" fill="url(#paint5_linear_1411_1566)"/>
<path fill-rule="evenodd" clip-rule="evenodd" d="M19.4321 29.8281C19.4321 30.2165 19.7469 30.5312 20.1353 30.5312H27.8648C28.2532 30.5312 28.568 30.2165 28.568 29.8281C28.568 29.4398 28.2532 29.125 27.8648 29.125H20.1353C19.7469 29.125 19.4321 29.4398 19.4321 29.8281Z" fill="url(#paint6_linear_1411_1566)"/>
<path fill-rule="evenodd" clip-rule="evenodd" d="M23.9937 2.70703C24.382 2.70703 24.6968 2.39223 24.6968 2.00391V0.703594C24.6968 0.315269 24.382 0.00046885 23.9937 0.00046885C23.6053 0.00046885 23.2905 0.315269 23.2905 0.703594V2.00391C23.2905 2.39223 23.6053 2.70703 23.9937 2.70703Z" fill="url(#paint7_linear_1411_1566)"/>
<path fill-rule="evenodd" clip-rule="evenodd" d="M40.5068 19.7656C40.5068 20.154 40.8216 20.4688 41.21 20.4688H42.4698C42.8581 20.4688 43.1729 20.154 43.1729 19.7656C43.1729 19.3773 42.8581 19.0625 42.4698 19.0625H41.21C40.8216 19.0625 40.5068 19.3773 40.5068 19.7656Z" fill="url(#paint8_linear_1411_1566)"/>
<path fill-rule="evenodd" clip-rule="evenodd" d="M4.82764 19.7656C4.82764 20.154 5.14244 20.4688 5.53076 20.4688H6.79057C7.1789 20.4688 7.4937 20.154 7.4937 19.7656C7.4937 19.3773 7.1789 19.0625 6.79057 19.0625H5.53076C5.14244 19.0625 4.82764 19.3773 4.82764 19.7656Z" fill="url(#paint9_linear_1411_1566)"/>
<path fill-rule="evenodd" clip-rule="evenodd" d="M35.6802 7.71103C35.9591 7.98125 36.4042 7.97421 36.6744 7.69533L37.5653 6.77583C37.8355 6.49694 37.8285 6.0518 37.5496 5.78158C37.2707 5.51136 36.8256 5.51839 36.5554 5.79728L35.6645 6.71678C35.3942 6.99567 35.4013 7.44081 35.6802 7.71103Z" fill="url(#paint10_linear_1411_1566)"/>
<path fill-rule="evenodd" clip-rule="evenodd" d="M10.4512 33.7491C10.73 34.0193 11.1752 34.0123 11.4454 33.7334L12.3363 32.8139C12.6065 32.535 12.5995 32.0899 12.3206 31.8197C12.0417 31.5494 11.5966 31.5565 11.3264 31.8354L10.4355 32.7549C10.1652 33.0338 10.1723 33.4789 10.4512 33.7491Z" fill="url(#paint11_linear_1411_1566)"/>
<path fill-rule="evenodd" clip-rule="evenodd" d="M37.5496 33.7491C37.8285 33.4789 37.8355 33.0338 37.5653 32.7549L36.6744 31.8354C36.4042 31.5565 35.9591 31.5494 35.6802 31.8197C35.4013 32.0899 35.3942 32.535 35.6645 32.8139L36.5554 33.7334C36.8256 34.0123 37.2707 34.0193 37.5496 33.7491Z" fill="url(#paint12_linear_1411_1566)"/>
<path fill-rule="evenodd" clip-rule="evenodd" d="M12.3206 7.71103C12.5995 7.44081 12.6065 6.99567 12.3363 6.71678L11.4454 5.79728C11.1752 5.51839 10.73 5.51136 10.4512 5.78158C10.1723 6.0518 10.1652 6.49694 10.4355 6.77583L11.3264 7.69533C11.5966 7.97421 12.0417 7.98125 12.3206 7.71103Z" fill="url(#paint13_linear_1411_1566)"/>
<path fill-rule="evenodd" clip-rule="evenodd" d="M18.2852 43.5918C18.2852 43.9801 18.6 44.2949 18.9883 44.2949H26.2888C26.6771 44.2949 26.9919 43.9801 26.9919 43.5918C26.9919 43.2035 26.6771 42.8887 26.2888 42.8887H18.9883C18.6 42.8887 18.2852 43.2035 18.2852 43.5918Z" fill="url(#paint14_linear_1411_1566)"/>
</g>
<defs>
<linearGradient id="paint0_linear_1411_1566" x1="9.09277" y1="22.7518" x2="38.9079" y2="22.7518" gradientUnits="userSpaceOnUse">
<stop offset="1" stop-color="#B1C72E"/>
</linearGradient>
<linearGradient id="paint1_linear_1411_1566" x1="18.2852" y1="43.8255" x2="29.7225" y2="43.8255" gradientUnits="userSpaceOnUse">
<stop offset="1" stop-color="#B1C72E"/>
</linearGradient>
<linearGradient id="paint2_linear_1411_1566" x1="18.1309" y1="17.7988" x2="29.87" y2="17.7988" gradientUnits="userSpaceOnUse">
<stop offset="1" stop-color="#B1C72E"/>
</linearGradient>
<linearGradient id="paint3_linear_1411_1566" x1="20.1953" y1="25.1509" x2="27.805" y2="25.1509" gradientUnits="userSpaceOnUse">
<stop offset="1" stop-color="#B1C72E"/>
</linearGradient>
<linearGradient id="paint4_linear_1411_1566" x1="19.4316" y1="33.4628" x2="28.5684" y2="33.4628" gradientUnits="userSpaceOnUse">
<stop offset="1" stop-color="#B1C72E"/>
</linearGradient>
<linearGradient id="paint5_linear_1411_1566" x1="23.2969" y1="15.7065" x2="24.7031" y2="15.7065" gradientUnits="userSpaceOnUse">
<stop offset="1" stop-color="#B1C72E"/>
</linearGradient>
<linearGradient id="paint6_linear_1411_1566" x1="19.4321" y1="29.8281" x2="28.568" y2="29.8281" gradientUnits="userSpaceOnUse">
<stop offset="1" stop-color="#B1C72E"/>
</linearGradient>
<linearGradient id="paint7_linear_1411_1566" x1="23.2905" y1="1.35375" x2="24.6968" y2="1.35375" gradientUnits="userSpaceOnUse">
<stop offset="1" stop-color="#B1C72E"/>
</linearGradient>
<linearGradient id="paint8_linear_1411_1566" x1="40.5068" y1="19.7656" x2="43.1729" y2="19.7656" gradientUnits="userSpaceOnUse">
<stop offset="1" stop-color="#B1C72E"/>
</linearGradient>
<linearGradient id="paint9_linear_1411_1566" x1="4.82764" y1="19.7656" x2="7.4937" y2="19.7656" gradientUnits="userSpaceOnUse">
<stop offset="1" stop-color="#B1C72E"/>
</linearGradient>
<linearGradient id="paint10_linear_1411_1566" x1="35.4663" y1="6.7463" x2="37.7635" y2="6.7463" gradientUnits="userSpaceOnUse">
<stop offset="1" stop-color="#B1C72E"/>
</linearGradient>
<linearGradient id="paint11_linear_1411_1566" x1="10.2373" y1="32.7844" x2="12.5345" y2="32.7844" gradientUnits="userSpaceOnUse">
<stop offset="1" stop-color="#B1C72E"/>
</linearGradient>
<linearGradient id="paint12_linear_1411_1566" x1="35.4663" y1="32.7844" x2="37.7635" y2="32.7844" gradientUnits="userSpaceOnUse">
<stop offset="1" stop-color="#B1C72E"/>
</linearGradient>
<linearGradient id="paint13_linear_1411_1566" x1="10.2373" y1="6.7463" x2="12.5345" y2="6.7463" gradientUnits="userSpaceOnUse">
<stop offset="1" stop-color="#B1C72E"/>
</linearGradient>
<linearGradient id="paint14_linear_1411_1566" x1="18.2852" y1="43.5918" x2="26.9919" y2="43.5918" gradientUnits="userSpaceOnUse">
<stop offset="1" stop-color="#B1C72E"/>
</linearGradient>
</defs>
</svg>
